<svg id="Layer_1" data-name="Layer 1" xmlns="http://www.w3.org/2000/svg" xmlns:xlink="http://www.w3.org/1999/xlink" viewBox="0 0 500 500"><defs><style>.cls-1{fill:url(#linear-gradient);}.cls-2{fill:url(#linear-gradient-2);}.cls-3{fill:#24a741;}</style><linearGradient id="linear-gradient" x1="139.11" y1="195.55" x2="361.81" y2="195.55" gradientUnits="userSpaceOnUse"><stop offset="0" stop-color="#099639"/><stop offset="0.04" stop-color="#1d9d3b"/><stop offset="0.1" stop-color="#2ea33d"/><stop offset="0.17" stop-color="#3ba83e"/><stop offset="0.26" stop-color="#42aa3f"/><stop offset="0.47" stop-color="#44ab3f"/><stop offset="0.73" stop-color="#42aa3f"/><stop offset="0.84" stop-color="#3ba83f"/><stop offset="0.92" stop-color="#2ea43e"/><stop offset="0.99" stop-color="#1d9f3d"/><stop offset="1" stop-color="#189d3d"/></linearGradient><linearGradient id="linear-gradient-2" x1="182.78" y1="195.55" x2="318.14" y2="195.55" xlink:href="#linear-gradient"/></defs><title>UM_Fin</title><path class="cls-1" d="M361.52,139.56c-.3-25.55-.67-23.55-.25-63a90.58,90.58,0,0,1-53.73,3C289.18,75.19,270,65.19,250.46,49.89,231,65.19,211.74,75.19,193.38,79.6a90.58,90.58,0,0,1-53.73-3c.43,39.46,0,37.46-.25,63-.65,55.45-1,83.28,7.82,104.15s27,35.5,63.33,64.84c11.58,9.35,24.65,19.91,39.91,32.66,15.26-12.75,28.33-23.31,39.91-32.66,36.34-29.34,54.57-44.07,63.33-64.84S362.17,195,361.52,139.56Zm-29.09,94.23C325.48,250.28,311,262,282.15,285.27c-9.2,7.43-19.58,15.81-31.69,25.93-12.11-10.12-22.49-18.5-31.69-25.93-28.85-23.29-43.33-35-50.28-51.48s-6.73-38.67-6.21-82.7c.24-20.28.54-18.7.2-50a71.94,71.94,0,0,0,42.66,2.42C219.72,100,235,92.05,250.46,79.9,266,92.05,281.2,100,295.78,103.48a72,72,0,0,0,42.67-2.42c-.34,31.33-.05,29.75.19,50C339.16,195.12,339.42,217.22,332.43,233.79Z"/><path class="cls-2" d="M318,161.52c-.19-15.52-.41-14.31-.15-38.29a55,55,0,0,1-32.66,1.85c-11.16-2.68-22.84-8.75-34.7-18-11.85,9.3-23.53,15.37-34.69,18a55,55,0,0,1-32.65-1.85c.27,24,0,22.77-.14,38.29-.41,33.71-.6,50.62,4.74,63.31s16.41,21.57,38.5,39.4c7,5.68,15,12.1,24.25,19.84,9.27-7.74,17.22-14.16,24.25-19.84,22.09-17.83,33.17-26.78,38.5-39.4S318.35,195.23,318,161.52Zm-67.51,54.29c-5.56,6-14.1,8.56-23.24,8.56-15.51,0-29.16-7.49-29.16-27.39V164.53h19.72v32.11c0,7.42,3.88,11.3,9.86,11.3,6.24,0,9.61-3.88,9.61-11.3l-.41-25.27,13.62,19.28,6.43,9.07C256.39,206.69,254,212,250.45,215.81Zm53.24,7.1H284V192.06h-.5l-13,17.11h-.68l-19.35-26.36-13.86-18.9h20l13.23,18.71h.68l13.23-18.71h20Z"/><path class="cls-3" d="M153.45,374.82c0,5.64-1.67,9-6.44,9-4.61,0-6.44-3.56-6.44-8.95V361.82h3.87v13.06c0,3.75.84,5.11,2.6,5.11s2.54-1.36,2.54-5.11V361.82h3.87Z"/><path class="cls-3" d="M173.31,376.77c0,4.46-2.54,6.72-7.19,6.72h-5.63V361.82h5.85c4,0,6.44,2.19,6.44,5.79a4.48,4.48,0,0,1-2.66,4.24A5,5,0,0,1,173.31,376.77Zm-4.37-9c0-1.49-.68-2.38-2.57-2.38h-2.1v4.73h2.19A2.17,2.17,0,0,0,168.94,367.76Zm.53,9.11c0-2.26-1-3.29-3.25-3.29h-1.95v6.35h2.07A2.79,2.79,0,0,0,169.47,376.87Z"/><path class="cls-3" d="M190.87,383.49h-11.4V361.82h11.12v3.71h-7.25v4.58h4.87v3.66h-4.87v6h7.53Z"/><path class="cls-3" d="M208.28,383.49H196.45v-3.43L202.73,368c.56-1.09,1.09-2,1.55-2.73-.77,0-1.67.06-2.76.06H197v-3.49h11.31v3.43l-6.23,12.08c-.56,1.08-1.08,2-1.55,2.73.78,0,1.67-.07,2.76-.07h5Z"/><path class="cls-3" d="M227.6,368.72c0,4.68-3.37,7-7.06,7h-1.73v7.77h-3.87V361.82h5.76C224.82,361.82,227.6,364.17,227.6,368.72Zm-3.87.06c0-1.79-.8-3.19-3.06-3.19h-1.86v6.35h1.92C222.71,371.94,223.73,370.77,223.73,368.78Z"/><path class="cls-3" d="M237.48,383.49h-3.87V361.82h3.87Z"/><path class="cls-3" d="M256.16,383.49h-11.4V361.82h11.12v3.71h-7.25v4.58h4.87v3.66h-4.87v6h7.53Z"/><path class="cls-3" d="M274.34,378.29c-1,3.56-2.91,5.54-6.22,5.54-4.8,0-7-4.92-7-11.14s2.29-11.22,7.09-11.22c3.68,0,5.29,2.36,6.13,5.49l-3.62,1.17c-.56-2-1.15-2.78-2.57-2.78-2.08,0-3.07,2.66-3.07,7.27s1,7.34,3.13,7.34c1.33,0,2-.74,2.82-3.09Z"/><path class="cls-3" d="M291.07,383.49H279.24v-3.43L285.52,368c.56-1.09,1.09-2,1.55-2.73-.77,0-1.67.06-2.75.06h-4.56v-3.49h11.31v3.43l-6.23,12.08c-.56,1.08-1.08,2-1.55,2.73.78,0,1.68-.07,2.76-.07h5Z"/><path class="cls-3" d="M309.12,383.49H297.73V361.82h11.11v3.71H301.6v4.58h4.86v3.66H301.6v6h7.52Z"/><path class="cls-3" d="M328.39,383.49h-3.72l-4-9.66c-.56-1.36-1.24-3.13-1.64-4.4,0,1.34.06,3.56.06,4.93v9.13h-3.53V361.82h3.9l3.81,9.5c.52,1.3,1.3,3.32,1.7,4.52,0-1.33-.12-3.68-.12-5v-9h3.53Z"/><path class="cls-3" d="M339.54,383.49h-3.87V361.82h3.87Z"/><path class="cls-3" d="M360.54,383.49h-4l-1-4.52h-4.86l-1,4.52h-4l5.55-21.67H355Zm-5.86-8.14-.58-2.57c-.38-1.67-.87-4.18-1-5.27-.15,1.12-.58,3.44-1,5.21l-.59,2.63Z"/><path class="cls-3" d="M140.77,404.1H156L166,418.34h.51l10.07-14.24h15.2V449h-15V425.52h-.38l-9.88,13H166l-9.88-13h-.38V449h-15Z"/><path class="cls-3" d="M232.8,444.44H216.64L215.42,449H199.83l13.09-44.89h23.6L249.6,449H234Zm-3.21-12L225.23,416h-1l-4.36,16.48Z"/><path class="cls-3" d="M306.41,426.23c0,14.75-12.63,22.76-22.05,22.76H257.61V404.1h27.26C295.9,404.1,306.41,412.5,306.41,426.23Zm-15.13-.07c0-7.24-4.55-10.19-11.48-10.19h-7.18v21.16h7.7C286.6,437.13,291.28,432.9,291.28,426.16Z"/><path class="cls-3" d="M316,428.79V404.1h15v24.44c0,5.64,2.95,8.59,7.5,8.59,4.75,0,7.31-2.95,7.31-8.59V404.1h15v24.69c0,15.14-10.64,20.84-22.64,20.84C326.42,449.63,316,443.93,316,428.79Z"/></svg>