<?xml version="1.0" encoding="UTF-8" standalone="no"?>
<svg
   xmlns:dc="http://purl.org/dc/elements/1.1/"
   xmlns:cc="http://creativecommons.org/ns#"
   xmlns:rdf="http://www.w3.org/1999/02/22-rdf-syntax-ns#"
   xmlns:svg="http://www.w3.org/2000/svg"
   xmlns="http://www.w3.org/2000/svg"
   xmlns:xlink="http://www.w3.org/1999/xlink"
   xmlns:sodipodi="http://sodipodi.sourceforge.net/DTD/sodipodi-0.dtd"
   xmlns:inkscape="http://www.inkscape.org/namespaces/inkscape"
   sodipodi:docname="logo-small.svg"
   inkscape:version="1.0beta2 (2b71d25, 2019-12-03)"
   id="svg138"
   version="1.1"
   viewBox="0 0 60 80"
   height="80mm"
   width="60mm">
  <defs
     id="defs132">
    <linearGradient
       id="linear-gradient"
       x1="139.11"
       y1="195.55"
       x2="361.81"
       y2="195.55"
       gradientUnits="userSpaceOnUse">
      <stop
         offset="0"
         stop-color="#099639"
         id="stop12" />
      <stop
         offset="0.04"
         stop-color="#1d9d3b"
         id="stop14" />
      <stop
         offset="0.1"
         stop-color="#2ea33d"
         id="stop16" />
      <stop
         offset="0.17"
         stop-color="#3ba83e"
         id="stop18" />
      <stop
         offset="0.26"
         stop-color="#42aa3f"
         id="stop20" />
      <stop
         offset="0.47"
         stop-color="#44ab3f"
         id="stop22" />
      <stop
         offset="0.73"
         stop-color="#42aa3f"
         id="stop24" />
      <stop
         offset="0.84"
         stop-color="#3ba83f"
         id="stop26" />
      <stop
         offset="0.92"
         stop-color="#2ea43e"
         id="stop28" />
      <stop
         offset="0.99"
         stop-color="#1d9f3d"
         id="stop30" />
      <stop
         offset="1"
         stop-color="#189d3d"
         id="stop32" />
    </linearGradient>
    <linearGradient
       gradientTransform="matrix(0.26458333,0,0,0.26458333,-36.351092,-12.223003)"
       id="linear-gradient-2"
       x1="182.78"
       y1="195.55"
       x2="318.14001"
       y2="195.55"
       xlink:href="#linear-gradient" />
    <linearGradient
       gradientTransform="matrix(0.26458333,0,0,0.26458333,-36.351092,-12.223003)"
       y2="195.55"
       x2="361.81"
       y1="195.55"
       x1="139.11"
       gradientUnits="userSpaceOnUse"
       id="linearGradient130"
       xlink:href="#linear-gradient"
       inkscape:collect="always" />
  </defs>
  <sodipodi:namedview
     inkscape:window-maximized="0"
     inkscape:window-y="23"
     inkscape:window-x="0"
     inkscape:window-height="1035"
     inkscape:window-width="1600"
     showgrid="false"
     inkscape:document-rotation="0"
     inkscape:current-layer="layer1"
     inkscape:document-units="mm"
     inkscape:cy="316.09756"
     inkscape:cx="400"
     inkscape:zoom="0.82"
     inkscape:pageshadow="2"
     inkscape:pageopacity="0.0"
     borderopacity="1.0"
     bordercolor="#666666"
     pagecolor="#ffffff"
     id="base" />
  <metadata
     id="metadata135">
    <rdf:RDF>
      <cc:Work
         rdf:about="">
        <dc:format>image/svg+xml</dc:format>
        <dc:type
           rdf:resource="http://purl.org/dc/dcmitype/StillImage" />
        <dc:title></dc:title>
      </cc:Work>
    </rdf:RDF>
  </metadata>
  <g
     id="layer1"
     inkscape:groupmode="layer"
     inkscape:label="Warstwa 1">
    <path
       inkscape:connector-curvature="0"
       style="fill:url(#linearGradient130);stroke-width:0.264583"
       class="cls-1"
       d="m 59.301077,24.702242 c -0.0794,-6.7601 -0.17727,-6.23093 -0.0661,-16.668745 a 23.965958,23.965958 0 0 1 -14.21606,0.79375 C 40.161167,7.671018 35.086457,5.025184 29.916497,0.97705904 24.767707,5.025184 19.671832,7.671018 14.814082,8.83783 A 23.965958,23.965958 0 0 1 0.59801945,8.04408 c 0.11376995,10.440462 0,9.911292 -0.06615,16.668752 -0.171979,14.67114 -0.264584,22.0345 2.06904095,27.55635 2.333626,5.52186 7.143751,9.39271 16.7560626,17.15558 3.063874,2.47386 6.521984,5.26786 10.559524,8.6413 4.03754,-3.37344 7.49564,-6.16744 10.55952,-8.6413 9.61496,-7.76287 14.43831,-11.66018 16.75606,-17.15558 2.31775,-5.49539 2.24102,-12.89844 2.06904,-27.56694 z m -7.69673,24.93169 c -1.83885,4.36298 -5.67002,7.4639 -13.30325,13.62075 -2.43416,1.96586 -5.18054,4.18306 -8.38464,6.86065 -3.20411,-2.67759 -5.95048,-4.89479 -8.38465,-6.86065 -7.633229,-6.16214 -11.464396,-9.26041 -13.3032496,-13.62075 -1.838854,-4.36033 -1.780646,-10.23144 -1.643062,-21.88104 0.0635,-5.36575 0.142875,-4.94771 0.05292,-13.22917 a 19.034125,19.034125 0 0 0 11.2871246,0.64029 c 3.857627,-0.92868 7.900457,-3.03212 11.990917,-6.246807 4.11162,3.214687 8.13329,5.318127 11.99092,6.238877 a 19.05,19.05 0 0 0 11.28977,-0.64029 c -0.09,8.28939 -0.0132,7.87135 0.0503,13.22916 0.13758,11.65754 0.20637,17.50484 -1.64306,21.88898 z"
       id="path40" />
    <path
       inkscape:connector-curvature="0"
       style="fill:url(#linear-gradient-2);stroke-width:0.264583"
       class="cls-2"
       d="m 47.786417,30.512492 c -0.0503,-4.10633 -0.10848,-3.78618 -0.0397,-10.13089 a 14.552083,14.552083 0 0 1 -8.6413,0.48948 c -2.95275,-0.70909 -6.04308,-2.31511 -9.18104,-4.7625 -3.13531,2.46062 -6.22564,4.06664 -9.17839,4.7625 a 14.552083,14.552083 0 0 1 -8.63865,-0.48948 c 0.07144,6.35 0,6.02456 -0.03704,10.13089 -0.108479,8.91911 -0.15875,13.39321 1.254125,16.75078 1.412875,3.35756 4.341813,5.70706 10.186455,10.42458 1.85209,1.50283 3.96875,3.20146 6.41615,5.24933 2.45269,-2.04787 4.55613,-3.7465 6.41615,-5.24933 5.84464,-4.71752 8.77623,-7.08554 10.18645,-10.42458 1.41023,-3.33905 1.34938,-7.83167 1.25678,-16.75078 z m -17.86203,14.36423 c -1.47108,1.5875 -3.73062,2.26484 -6.14891,2.26484 -4.10369,0 -7.715253,-1.98173 -7.715253,-7.24694 v -8.58573 h 5.217583 v 8.49577 c 0,1.96321 1.02658,2.98979 2.60879,2.98979 1.651,0 2.54265,-1.02658 2.54265,-2.98979 l -0.10848,-6.68602 3.60362,5.10117 1.70128,2.39977 c -0.14023,1.84414 -0.77259,3.24908 -1.71186,4.25714 z m 14.08642,1.87855 h -5.22023 v -8.1624 h -0.13229 l -3.43958,4.52702 h -0.17992 l -5.11969,-6.97442 -3.66712,-5.00062 h 5.29166 l 3.50044,4.95035 h 0.17992 l 3.50044,-4.95035 h 5.29166 z"
       id="path42" />
  </g>
</svg>
