<?xml version="1.0" encoding="utf-8"?>
<!-- Generator: Adobe Illustrator 24.1.2, SVG Export Plug-In . SVG Version: 6.00 Build 0)  -->
<svg version="1.1" id="Layer_1" xmlns="http://www.w3.org/2000/svg" xmlns:xlink="http://www.w3.org/1999/xlink" x="0px" y="0px"
	 viewBox="0 0 500 500" style="enable-background:new 0 0 500 500;" xml:space="preserve">
<style type="text/css">
	.st0{fill:#61BF5C;stroke:#FFFFFF;stroke-width:5;stroke-miterlimit:10;}
</style>
<g>
	<path class="st0" d="M247.69,234.2c1.02,0.03,2.04,0.03,3.07,0c11.76-0.4,21.94,4.39,30.28,12.92c8.93,9.13,13.34,21.71,20.9,32
		c10.35,14.11,26.42,23.75,34.61,39.21c7.01,13.23,7.19,29.58,1.69,43.52c-8.76,22.19-33.27,37.92-56.79,33.89
		c-10.48-1.79-20.86-7.04-31.4-8.6c-0.54-0.08-1.1-0.08-1.64,0c-10.53,1.55-20.92,6.8-31.39,8.6
		c-23.51,4.03-48.03-11.71-56.79-33.89c-5.5-13.93-5.32-30.28,1.69-43.52c8.19-15.46,24.26-25.1,34.61-39.21
		c7.55-10.3,11.97-22.87,20.9-32C225.77,238.59,235.94,233.8,247.69,234.2z"/>
	<path class="st0" d="M260.77,203.13c-4.43-24.58-5.38-51.91,1.1-75.83c10.95-44.8,59.16-17.69,69.11,13.07
		c9.21,25.14,5.86,56.9-11.26,78.02C301.85,240.95,266.96,229.89,260.77,203.13z"/>
	<path class="st0" d="M326.49,267.74c-0.54-28.57,11.5-61.08,35.7-77.57c9.98-6.8,23.63-4.94,31,4.63
		c16.94,22,14.01,73.7-2.82,90.07C368.98,303.08,322.41,307.21,326.49,267.74z"/>
	<path class="st0" d="M239.23,203.6c4.43-24.58,5.38-51.91-1.1-75.83c-10.95-44.8-59.16-17.69-69.11,13.07
		c-9.21,25.14-5.86,56.9,11.26,78.02C198.15,241.42,233.04,230.36,239.23,203.6z"/>
	<path class="st0" d="M173.51,268.22c0.54-28.57-11.5-61.08-35.7-77.57c-9.98-6.8-23.63-4.94-31,4.63
		c-16.94,22-14.01,73.7,2.82,90.07C131.02,303.56,177.59,307.69,173.51,268.22z"/>
</g>
</svg>
