<?xml version="1.0" encoding="utf-8"?>
<!-- Generator: Adobe Illustrator 24.1.2, SVG Export Plug-In . SVG Version: 6.00 Build 0)  -->
<svg version="1.1" id="Layer_1" xmlns="http://www.w3.org/2000/svg" xmlns:xlink="http://www.w3.org/1999/xlink" x="0px" y="0px"
	 viewBox="0 0 500 500" style="enable-background:new 0 0 500 500;" xml:space="preserve">
<style type="text/css">
	.st0{fill:#61BF5C;}
	.st1{fill:#FFFFFF;}
</style>
<g>
	<g>
		<g>
			<path class="st0" d="M232.92,388.54l-37.28,21.14v-13.17c0-19.26,10.16-37.1,26.72-46.93l21.83-11.97v31.14
				C244.18,376.88,239.9,384.4,232.92,388.54z"/>
			<path class="st1" d="M232.92,388.54l-9.28,5.35c-3.1,1.78-6.14,3.65-9.21,5.47c-3.07,1.82-6.12,3.69-9.16,5.57
				c-3.05,1.86-6.09,3.75-9.12,5.65c-0.47,0.29-1.08,0.15-1.37-0.32c-0.09-0.15-0.14-0.32-0.15-0.48l0-0.09l-0.5-11.82
				c-0.17-3.97-0.07-8.11,0.6-12.13c0.64-4.04,1.8-7.99,3.33-11.8c0.41-0.94,0.77-1.91,1.23-2.82l1.39-2.75l1.58-2.65
				c0.52-0.89,1.14-1.71,1.72-2.56c2.4-3.35,5.16-6.44,8.24-9.18l2.38-1.97c0.8-0.65,1.66-1.21,2.49-1.82
				c0.82-0.62,1.71-1.16,2.6-1.69l1.33-0.81c0.44-0.26,0.88-0.46,1.32-0.7c7-3.66,14.05-7.21,21.12-10.72l0.12-0.06
				c0.75-0.37,1.65-0.06,2.02,0.68c0.12,0.23,0.16,0.49,0.16,0.73l-0.58,13.74c-0.21,4.58-0.35,9.16-0.51,13.74
				c-0.13,2.28,0,4.6-0.41,6.9c-0.38,2.29-1.1,4.51-2.12,6.57c-0.99,2.08-2.31,3.99-3.87,5.67
				C236.68,385.91,234.89,387.37,232.92,388.54z M232.92,388.54c3.93-2.36,7.14-5.91,8.99-10.08c0.91-2.09,1.52-4.3,1.78-6.55
				c0.07-0.56,0.09-1.13,0.14-1.69l0.01-1.7c-0.02-1.15-0.06-2.29-0.1-3.44c-0.17-4.58-0.31-9.16-0.51-13.74l-0.58-13.74l2.29,1.36
				c-6.74,4.07-13.51,8.1-20.33,12.02c-0.42,0.25-0.87,0.49-1.26,0.75l-1.16,0.78c-0.77,0.53-1.56,1-2.3,1.6
				c-0.74,0.58-1.52,1.11-2.24,1.72l-2.14,1.83c-2.77,2.54-5.3,5.35-7.52,8.38c-4.51,6.03-7.64,13.06-9.41,20.44
				c-0.88,3.72-1.23,7.47-1.42,11.38l-0.5,11.82l-1.53-0.89c3.18-1.63,6.36-3.26,9.52-4.92c3.17-1.65,6.34-3.3,9.48-5.01
				c3.14-1.7,6.31-3.36,9.43-5.1L232.92,388.54z"/>
		</g>
		<g>
			<path class="st0" d="M232.92,335.86L195.63,357v-13.17c0-19.26,10.16-37.1,26.72-46.93l21.83-11.97v31.14
				C244.18,324.19,239.9,331.71,232.92,335.86z"/>
			<path class="st1" d="M232.92,335.86l-9.28,5.35c-3.1,1.78-6.14,3.65-9.21,5.47c-3.07,1.82-6.12,3.69-9.16,5.57
				c-3.05,1.86-6.09,3.75-9.12,5.65c-0.47,0.29-1.08,0.15-1.37-0.32c-0.09-0.15-0.14-0.32-0.15-0.48l0-0.09l-0.5-11.82
				c-0.17-3.97-0.07-8.11,0.6-12.13c0.64-4.04,1.8-7.99,3.33-11.8c0.41-0.94,0.77-1.91,1.23-2.82l1.39-2.75l1.58-2.65
				c0.52-0.89,1.14-1.71,1.72-2.56c2.4-3.35,5.16-6.44,8.24-9.18l2.38-1.97c0.8-0.65,1.66-1.21,2.49-1.82
				c0.82-0.62,1.71-1.16,2.6-1.69l1.33-0.81c0.44-0.26,0.88-0.46,1.32-0.7c7-3.66,14.05-7.21,21.12-10.72l0.12-0.06
				c0.75-0.37,1.65-0.06,2.02,0.68c0.12,0.23,0.16,0.49,0.16,0.73l-0.58,13.74c-0.21,4.58-0.35,9.16-0.51,13.74
				c-0.13,2.28,0,4.6-0.41,6.9c-0.38,2.29-1.1,4.51-2.12,6.57c-0.99,2.08-2.31,3.99-3.87,5.67
				C236.68,333.23,234.89,334.69,232.92,335.86z M232.92,335.86c3.93-2.36,7.14-5.91,8.99-10.08c0.91-2.09,1.52-4.3,1.78-6.55
				c0.07-0.56,0.09-1.13,0.14-1.69l0.01-1.7c-0.02-1.15-0.06-2.29-0.1-3.44c-0.17-4.58-0.31-9.16-0.51-13.74l-0.58-13.74l2.29,1.36
				c-6.74,4.07-13.51,8.1-20.33,12.02c-0.42,0.25-0.87,0.49-1.26,0.75l-1.16,0.78c-0.77,0.53-1.56,1-2.3,1.6
				c-0.74,0.58-1.52,1.11-2.24,1.72l-2.14,1.83c-2.77,2.54-5.3,5.35-7.52,8.38c-4.51,6.03-7.64,13.06-9.41,20.44
				c-0.88,3.72-1.23,7.47-1.42,11.38l-0.5,11.82l-1.53-0.89c3.18-1.63,6.36-3.26,9.52-4.92c3.17-1.65,6.34-3.3,9.48-5.01
				c3.14-1.7,6.31-3.36,9.43-5.1L232.92,335.86z"/>
		</g>
		<g>
			<path class="st0" d="M232.92,283.17l-37.28,21.14v-13.17c0-19.26,10.16-37.1,26.72-46.93l21.83-11.97v31.14
				C244.18,271.51,239.9,279.03,232.92,283.17z"/>
			<path class="st1" d="M232.92,283.17l-9.28,5.35c-3.1,1.78-6.14,3.65-9.21,5.47c-3.07,1.82-6.12,3.69-9.16,5.57
				c-3.05,1.86-6.09,3.75-9.12,5.65c-0.47,0.29-1.08,0.15-1.37-0.32c-0.09-0.15-0.14-0.32-0.15-0.48l0-0.09l-0.5-11.82
				c-0.17-3.97-0.07-8.11,0.6-12.13c0.64-4.04,1.8-7.99,3.33-11.8c0.41-0.94,0.77-1.91,1.23-2.82l1.39-2.75l1.58-2.65
				c0.52-0.89,1.14-1.71,1.72-2.56c2.4-3.35,5.16-6.44,8.24-9.18l2.38-1.97c0.8-0.65,1.66-1.21,2.49-1.82
				c0.82-0.62,1.71-1.16,2.6-1.69l1.33-0.81c0.44-0.26,0.88-0.46,1.32-0.7c7-3.66,14.05-7.21,21.12-10.72l0.12-0.06
				c0.75-0.37,1.65-0.06,2.02,0.68c0.12,0.23,0.16,0.49,0.16,0.73l-0.58,13.74c-0.21,4.58-0.35,9.16-0.51,13.74
				c-0.13,2.28,0,4.6-0.41,6.9c-0.38,2.29-1.1,4.51-2.12,6.57c-0.99,2.08-2.31,3.99-3.87,5.67
				C236.68,280.54,234.89,282.01,232.92,283.17z M232.92,283.17c3.93-2.36,7.14-5.91,8.99-10.08c0.91-2.09,1.52-4.3,1.78-6.55
				c0.07-0.56,0.09-1.13,0.14-1.69l0.01-1.7c-0.02-1.15-0.06-2.29-0.1-3.44c-0.17-4.58-0.31-9.16-0.51-13.74l-0.58-13.74l2.29,1.36
				c-6.74,4.07-13.51,8.1-20.33,12.02c-0.42,0.25-0.87,0.49-1.26,0.75l-1.16,0.78c-0.77,0.53-1.56,1-2.3,1.6
				c-0.74,0.58-1.52,1.11-2.24,1.72l-2.14,1.83c-2.77,2.54-5.3,5.35-7.52,8.38c-4.51,6.03-7.64,13.06-9.41,20.44
				c-0.88,3.72-1.23,7.47-1.42,11.38l-0.5,11.82l-1.53-0.89c3.18-1.63,6.36-3.26,9.52-4.92c3.17-1.65,6.34-3.3,9.48-5.01
				c3.14-1.7,6.31-3.36,9.43-5.1L232.92,283.17z"/>
		</g>
		<g>
			<path class="st0" d="M232.92,230.49l-37.28,21.14v-13.17c0-19.26,10.16-37.1,26.72-46.93l21.83-11.97v31.14
				C244.18,218.82,239.9,226.34,232.92,230.49z"/>
			<path class="st1" d="M232.92,230.49l-9.28,5.35c-3.1,1.78-6.14,3.65-9.21,5.47c-3.07,1.82-6.12,3.69-9.16,5.57
				c-3.05,1.86-6.09,3.75-9.12,5.65c-0.47,0.29-1.08,0.15-1.37-0.32c-0.09-0.15-0.14-0.32-0.15-0.48l0-0.09l-0.5-11.82
				c-0.17-3.97-0.07-8.11,0.6-12.13c0.64-4.04,1.8-7.99,3.33-11.8c0.41-0.94,0.77-1.91,1.23-2.82l1.39-2.75l1.58-2.65
				c0.52-0.89,1.14-1.71,1.72-2.56c2.4-3.35,5.16-6.44,8.24-9.18l2.38-1.97c0.8-0.65,1.66-1.21,2.49-1.82
				c0.82-0.62,1.71-1.16,2.6-1.69l1.33-0.81c0.44-0.26,0.88-0.46,1.32-0.7c7-3.66,14.05-7.21,21.12-10.72l0.12-0.06
				c0.75-0.37,1.65-0.06,2.02,0.68c0.12,0.23,0.16,0.49,0.16,0.73l-0.58,13.74c-0.21,4.58-0.35,9.16-0.51,13.74
				c-0.13,2.28,0,4.6-0.41,6.9c-0.38,2.29-1.1,4.51-2.12,6.57c-0.99,2.08-2.31,3.99-3.87,5.67
				C236.68,227.86,234.89,229.32,232.92,230.49z M232.92,230.49c3.93-2.36,7.14-5.91,8.99-10.08c0.91-2.09,1.52-4.3,1.78-6.55
				c0.07-0.56,0.09-1.13,0.14-1.69l0.01-1.7c-0.02-1.15-0.06-2.29-0.1-3.44c-0.17-4.58-0.31-9.16-0.51-13.74l-0.58-13.74l2.29,1.36
				c-6.74,4.07-13.51,8.1-20.33,12.02c-0.42,0.25-0.87,0.49-1.26,0.75l-1.16,0.78c-0.77,0.53-1.56,1-2.3,1.6
				c-0.74,0.58-1.52,1.11-2.24,1.72l-2.14,1.83c-2.77,2.54-5.3,5.35-7.52,8.38c-4.51,6.03-7.64,13.06-9.41,20.44
				c-0.88,3.72-1.23,7.47-1.42,11.38l-0.5,11.82l-1.53-0.89c3.18-1.63,6.36-3.26,9.52-4.92c3.17-1.65,6.34-3.3,9.48-5.01
				c3.14-1.7,6.31-3.36,9.43-5.1L232.92,230.49z"/>
		</g>
		<g>
			<path class="st0" d="M232.92,177.8l-37.28,21.14v-13.17c0-19.26,10.16-37.1,26.72-46.93l21.83-11.97v31.14
				C244.18,166.14,239.9,173.66,232.92,177.8z"/>
			<path class="st1" d="M232.92,177.8l-9.28,5.35c-3.1,1.78-6.14,3.65-9.21,5.47c-3.07,1.82-6.12,3.69-9.16,5.57
				c-3.05,1.86-6.09,3.75-9.12,5.65c-0.47,0.29-1.08,0.15-1.37-0.32c-0.09-0.15-0.14-0.32-0.15-0.48l0-0.09l-0.5-11.82
				c-0.17-3.97-0.07-8.11,0.6-12.13c0.64-4.04,1.8-7.99,3.33-11.8c0.41-0.94,0.77-1.91,1.23-2.82l1.39-2.75l1.58-2.65
				c0.52-0.89,1.14-1.71,1.72-2.56c2.4-3.35,5.16-6.44,8.24-9.18l2.38-1.97c0.8-0.65,1.66-1.21,2.49-1.82
				c0.82-0.62,1.71-1.16,2.6-1.69l1.33-0.81c0.44-0.26,0.88-0.46,1.32-0.7c7-3.66,14.05-7.21,21.12-10.72l0.12-0.06
				c0.75-0.37,1.65-0.06,2.02,0.68c0.12,0.23,0.16,0.49,0.16,0.73l-0.58,13.74c-0.21,4.58-0.35,9.16-0.51,13.74
				c-0.13,2.28,0,4.6-0.41,6.9c-0.38,2.29-1.1,4.51-2.12,6.57c-0.99,2.08-2.31,3.99-3.87,5.67
				C236.68,175.18,234.89,176.64,232.92,177.8z M232.92,177.8c3.93-2.36,7.14-5.91,8.99-10.08c0.91-2.09,1.52-4.3,1.78-6.55
				c0.07-0.56,0.09-1.13,0.14-1.69l0.01-1.7c-0.02-1.15-0.06-2.29-0.1-3.44c-0.17-4.58-0.31-9.16-0.51-13.74l-0.58-13.74l2.29,1.36
				c-6.74,4.07-13.51,8.1-20.33,12.02c-0.42,0.25-0.87,0.49-1.26,0.75l-1.16,0.78c-0.77,0.53-1.56,1-2.3,1.6
				c-0.74,0.58-1.52,1.11-2.24,1.72l-2.14,1.83c-2.77,2.54-5.3,5.35-7.52,8.38c-4.51,6.03-7.64,13.06-9.41,20.44
				c-0.88,3.72-1.23,7.47-1.42,11.38l-0.5,11.82l-1.53-0.89c3.18-1.63,6.36-3.26,9.52-4.92c3.17-1.65,6.34-3.3,9.48-5.01
				c3.14-1.7,6.31-3.36,9.43-5.1L232.92,177.8z"/>
		</g>
		<g>
			<path class="st0" d="M232.92,125.12l-37.28,21.14v-13.17c0-19.26,10.16-37.1,26.72-46.93l21.83-11.97v31.14
				C244.18,113.45,239.9,120.97,232.92,125.12z"/>
			<path class="st1" d="M232.92,125.12l-9.28,5.35c-3.1,1.78-6.14,3.65-9.21,5.47c-3.07,1.82-6.12,3.69-9.16,5.57
				c-3.05,1.86-6.09,3.75-9.12,5.65c-0.47,0.29-1.08,0.15-1.37-0.32c-0.09-0.15-0.14-0.32-0.15-0.48l0-0.09l-0.5-11.82
				c-0.17-3.97-0.07-8.11,0.6-12.13c0.64-4.04,1.8-7.99,3.33-11.8c0.41-0.94,0.77-1.91,1.23-2.82l1.39-2.75l1.58-2.65
				c0.52-0.89,1.14-1.71,1.72-2.56c2.4-3.35,5.16-6.44,8.24-9.18l2.38-1.97c0.8-0.65,1.66-1.21,2.49-1.82
				c0.82-0.62,1.71-1.16,2.6-1.69l1.33-0.81c0.44-0.26,0.88-0.46,1.32-0.7c7-3.66,14.05-7.21,21.12-10.72l0.12-0.06
				c0.75-0.37,1.65-0.06,2.02,0.68c0.12,0.23,0.16,0.49,0.16,0.73l-0.58,13.74c-0.21,4.58-0.35,9.16-0.51,13.74
				c-0.13,2.28,0,4.6-0.41,6.9c-0.38,2.29-1.1,4.51-2.12,6.57c-0.99,2.08-2.31,3.99-3.87,5.67
				C236.68,122.49,234.89,123.95,232.92,125.12z M232.92,125.12c3.93-2.36,7.14-5.91,8.99-10.08c0.91-2.09,1.52-4.3,1.78-6.55
				c0.07-0.56,0.09-1.13,0.14-1.69l0.01-1.7c-0.02-1.15-0.06-2.29-0.1-3.44c-0.17-4.58-0.31-9.16-0.51-13.74l-0.58-13.74l2.29,1.36
				c-6.74,4.07-13.51,8.1-20.33,12.02c-0.42,0.25-0.87,0.49-1.26,0.75l-1.16,0.78c-0.77,0.53-1.56,1-2.3,1.6
				c-0.74,0.58-1.52,1.11-2.24,1.72l-2.14,1.83c-2.77,2.54-5.3,5.35-7.52,8.38c-4.51,6.03-7.64,13.06-9.41,20.44
				c-0.88,3.72-1.23,7.47-1.42,11.38l-0.5,11.82l-1.53-0.89c3.18-1.63,6.36-3.26,9.52-4.92c3.17-1.65,6.34-3.3,9.48-5.01
				c3.14-1.7,6.31-3.36,9.43-5.1L232.92,125.12z"/>
		</g>
		<g>
			<path class="st0" d="M212.41,67.93L193.3,106.3l-7.36-10.93c-10.76-15.98-12.3-36.44-4.06-53.85l11.42-22.13l17.4,25.83
				C215.24,51.96,215.89,60.59,212.41,67.93z"/>
			<path class="st1" d="M212.41,67.93l-4.71,9.62c-1.57,3.21-3.06,6.46-4.59,9.69c-1.53,3.23-3.01,6.48-4.49,9.74
				c-1.49,3.25-2.95,6.51-4.41,9.78c-0.22,0.5-0.81,0.73-1.32,0.51c-0.16-0.07-0.3-0.18-0.4-0.32l-0.05-0.07l-7.01-9.53
				c-2.36-3.19-4.59-6.69-6.28-10.39c-1.72-3.71-2.97-7.63-3.83-11.65c-0.18-1.01-0.43-2.01-0.56-3.03l-0.38-3.06l-0.17-3.08
				c-0.06-1.03-0.01-2.06-0.01-3.09c0.12-4.12,0.68-8.22,1.7-12.21l0.87-2.96c0.3-0.98,0.7-1.94,1.05-2.9
				c0.33-0.97,0.77-1.92,1.21-2.86l0.65-1.41c0.22-0.47,0.47-0.88,0.7-1.32c3.76-6.95,7.62-13.83,11.53-20.69l0.06-0.11
				c0.41-0.72,1.33-0.98,2.06-0.56c0.23,0.13,0.41,0.31,0.54,0.52l7.2,11.72c2.39,3.91,4.83,7.79,7.25,11.68
				c1.16,1.96,2.57,3.81,3.51,5.95c0.96,2.11,1.61,4.35,1.91,6.63c0.34,2.28,0.31,4.6-0.05,6.86
				C214.07,63.65,213.4,65.86,212.41,67.93z M212.41,67.93c1.94-4.15,2.62-8.89,1.82-13.38c-0.41-2.24-1.15-4.42-2.18-6.43
				c-0.26-0.5-0.55-0.99-0.83-1.48l-0.94-1.41c-0.66-0.94-1.33-1.87-2-2.79c-2.7-3.7-5.37-7.43-8.1-11.11l-8.16-11.07l2.66-0.15
				c-3.32,7.15-6.68,14.26-10.15,21.32c-0.21,0.44-0.45,0.89-0.63,1.32l-0.52,1.3c-0.34,0.87-0.74,1.71-1.01,2.61
				c-0.29,0.89-0.64,1.77-0.89,2.68l-0.75,2.72c-0.88,3.66-1.41,7.39-1.56,11.15c-0.37,7.52,0.96,15.1,3.62,22.21
				c1.35,3.58,3.15,6.89,5.18,10.23l6.19,10.08l-1.77,0.12c1.73-3.13,3.45-6.26,5.15-9.41c1.71-3.14,3.41-6.28,5.07-9.45
				c1.66-3.17,3.36-6.31,4.97-9.5L212.41,67.93z"/>
		</g>
		<g>
			<g>
				<path class="st0" d="M154.21,388.54l37.28,21.14v-13.17c0-19.26-10.16-37.1-26.72-46.93l-21.83-11.97v31.14
					C142.94,376.88,147.23,384.4,154.21,388.54z"/>
				<path class="st1" d="M154.21,388.54l9.36,5.22c3.12,1.74,6.29,3.4,9.43,5.1c3.14,1.71,6.31,3.36,9.48,5.01
					c3.16,1.66,6.34,3.3,9.52,4.92l-1.53,0.89l-0.5-11.82c-0.18-3.91-0.53-7.66-1.42-11.38c-1.77-7.39-4.9-14.41-9.41-20.44
					c-2.23-3.03-4.75-5.83-7.52-8.38l-2.14-1.83c-0.72-0.61-1.49-1.14-2.24-1.72c-0.74-0.6-1.53-1.07-2.3-1.6l-1.16-0.78
					c-0.39-0.26-0.84-0.5-1.26-0.75c-6.82-3.92-13.58-7.94-20.33-12.02l2.29-1.36l-0.58,13.74c-0.21,4.58-0.35,9.16-0.51,13.74
					c-0.05,1.15-0.08,2.29-0.1,3.44l0.01,1.7c0.04,0.56,0.07,1.13,0.14,1.69c0.27,2.25,0.87,4.46,1.78,6.55
					C147.08,382.64,150.29,386.18,154.21,388.54z M154.21,388.54c-1.97-1.17-3.77-2.63-5.31-4.32c-1.56-1.68-2.88-3.59-3.87-5.67
					c-1.02-2.06-1.74-4.28-2.12-6.57c-0.41-2.3-0.28-4.62-0.41-6.9c-0.17-4.58-0.31-9.16-0.51-13.74l-0.58-13.74
					c-0.04-0.83,0.61-1.53,1.44-1.57c0.26-0.01,0.51,0.04,0.73,0.15l0.12,0.06c7.07,3.51,14.13,7.06,21.12,10.72
					c0.44,0.24,0.87,0.44,1.32,0.7l1.33,0.81c0.89,0.54,1.78,1.08,2.6,1.69c0.83,0.61,1.69,1.18,2.49,1.82l2.38,1.97
					c3.08,2.74,5.84,5.83,8.24,9.18c0.58,0.85,1.2,1.67,1.72,2.56l1.58,2.65l1.39,2.75c0.46,0.92,0.82,1.89,1.23,2.82
					c1.53,3.81,2.69,7.76,3.33,11.8c0.67,4.02,0.77,8.16,0.6,12.13l-0.5,11.82l0,0.09c-0.02,0.55-0.49,0.98-1.04,0.95
					c-0.18-0.01-0.35-0.06-0.49-0.15c-3.03-1.9-6.07-3.78-9.12-5.65c-3.04-1.88-6.09-3.75-9.16-5.57c-3.07-1.82-6.12-3.69-9.21-5.47
					L154.21,388.54z"/>
			</g>
			<g>
				<path class="st0" d="M154.21,335.86L191.5,357v-13.17c0-19.26-10.16-37.1-26.72-46.93l-21.83-11.97v31.14
					C142.94,324.19,147.23,331.71,154.21,335.86z"/>
				<path class="st1" d="M154.21,335.86l9.36,5.22c3.12,1.74,6.29,3.4,9.43,5.1c3.14,1.71,6.31,3.36,9.48,5.01
					c3.16,1.66,6.34,3.3,9.52,4.92l-1.53,0.89l-0.5-11.82c-0.18-3.91-0.53-7.66-1.42-11.38c-1.77-7.39-4.9-14.41-9.41-20.44
					c-2.23-3.03-4.75-5.83-7.52-8.38l-2.14-1.83c-0.72-0.61-1.49-1.14-2.24-1.72c-0.74-0.6-1.53-1.07-2.3-1.6l-1.16-0.78
					c-0.39-0.26-0.84-0.5-1.26-0.75c-6.82-3.92-13.58-7.94-20.33-12.02l2.29-1.36l-0.58,13.74c-0.21,4.58-0.35,9.16-0.51,13.74
					c-0.05,1.15-0.08,2.29-0.1,3.44l0.01,1.7c0.04,0.56,0.07,1.13,0.14,1.69c0.27,2.25,0.87,4.46,1.78,6.55
					C147.08,329.95,150.29,333.5,154.21,335.86z M154.21,335.86c-1.97-1.17-3.77-2.63-5.31-4.32c-1.56-1.68-2.88-3.59-3.87-5.67
					c-1.02-2.06-1.74-4.28-2.12-6.57c-0.41-2.3-0.28-4.62-0.41-6.9c-0.17-4.58-0.31-9.16-0.51-13.74l-0.58-13.74
					c-0.04-0.83,0.61-1.53,1.44-1.57c0.26-0.01,0.51,0.04,0.73,0.15l0.12,0.06c7.07,3.51,14.13,7.06,21.12,10.72
					c0.44,0.24,0.87,0.44,1.32,0.7l1.33,0.81c0.89,0.54,1.78,1.08,2.6,1.69c0.83,0.61,1.69,1.18,2.49,1.82l2.38,1.97
					c3.08,2.74,5.84,5.83,8.24,9.18c0.58,0.85,1.2,1.67,1.72,2.56l1.58,2.65l1.39,2.75c0.46,0.92,0.82,1.89,1.23,2.82
					c1.53,3.81,2.69,7.76,3.33,11.8c0.67,4.02,0.77,8.16,0.6,12.13l-0.5,11.82l0,0.09c-0.02,0.55-0.49,0.98-1.04,0.95
					c-0.18-0.01-0.35-0.06-0.49-0.15c-3.03-1.9-6.07-3.78-9.12-5.65c-3.04-1.88-6.09-3.75-9.16-5.57c-3.07-1.82-6.12-3.69-9.21-5.47
					L154.21,335.86z"/>
			</g>
			<g>
				<path class="st0" d="M154.21,283.17l37.28,21.14v-13.17c0-19.26-10.16-37.1-26.72-46.93l-21.83-11.97v31.14
					C142.94,271.51,147.23,279.03,154.21,283.17z"/>
				<path class="st1" d="M154.21,283.17l9.36,5.22c3.12,1.74,6.29,3.4,9.43,5.1c3.14,1.71,6.31,3.36,9.48,5.01
					c3.16,1.66,6.34,3.3,9.52,4.92l-1.53,0.89l-0.5-11.82c-0.18-3.91-0.53-7.66-1.42-11.38c-1.77-7.39-4.9-14.41-9.41-20.44
					c-2.23-3.03-4.75-5.83-7.52-8.38l-2.14-1.83c-0.72-0.61-1.49-1.14-2.24-1.72c-0.74-0.6-1.53-1.07-2.3-1.6l-1.16-0.78
					c-0.39-0.26-0.84-0.5-1.26-0.75c-6.82-3.92-13.58-7.94-20.33-12.02l2.29-1.36l-0.58,13.74c-0.21,4.58-0.35,9.16-0.51,13.74
					c-0.05,1.15-0.08,2.29-0.1,3.44l0.01,1.7c0.04,0.56,0.07,1.13,0.14,1.69c0.27,2.25,0.87,4.46,1.78,6.55
					C147.08,277.27,150.29,280.82,154.21,283.17z M154.21,283.17c-1.97-1.17-3.77-2.63-5.31-4.32c-1.56-1.68-2.88-3.59-3.87-5.67
					c-1.02-2.06-1.74-4.28-2.12-6.57c-0.41-2.3-0.28-4.62-0.41-6.9c-0.17-4.58-0.31-9.16-0.51-13.74l-0.58-13.74
					c-0.04-0.83,0.61-1.53,1.44-1.57c0.26-0.01,0.51,0.04,0.73,0.15l0.12,0.06c7.07,3.51,14.13,7.06,21.12,10.72
					c0.44,0.24,0.87,0.44,1.32,0.7l1.33,0.81c0.89,0.54,1.78,1.08,2.6,1.69c0.83,0.61,1.69,1.18,2.49,1.82l2.38,1.97
					c3.08,2.74,5.84,5.83,8.24,9.18c0.58,0.85,1.2,1.67,1.72,2.56l1.58,2.65l1.39,2.75c0.46,0.92,0.82,1.89,1.23,2.82
					c1.53,3.81,2.69,7.76,3.33,11.8c0.67,4.02,0.77,8.16,0.6,12.13l-0.5,11.82l0,0.09c-0.02,0.55-0.49,0.98-1.04,0.95
					c-0.18-0.01-0.35-0.06-0.49-0.15c-3.03-1.9-6.07-3.78-9.12-5.65c-3.04-1.88-6.09-3.75-9.16-5.57c-3.07-1.82-6.12-3.69-9.21-5.47
					L154.21,283.17z"/>
			</g>
			<g>
				<path class="st0" d="M154.21,230.49l37.28,21.14v-13.17c0-19.26-10.16-37.1-26.72-46.93l-21.83-11.97v31.14
					C142.94,218.82,147.23,226.34,154.21,230.49z"/>
				<path class="st1" d="M154.21,230.49l9.36,5.22c3.12,1.74,6.29,3.4,9.43,5.1c3.14,1.71,6.31,3.36,9.48,5.01
					c3.16,1.66,6.34,3.3,9.52,4.92l-1.53,0.89l-0.5-11.82c-0.18-3.91-0.53-7.66-1.42-11.38c-1.77-7.39-4.9-14.41-9.41-20.44
					c-2.23-3.03-4.75-5.83-7.52-8.38l-2.14-1.83c-0.72-0.61-1.49-1.14-2.24-1.72c-0.74-0.6-1.53-1.07-2.3-1.6l-1.16-0.78
					c-0.39-0.26-0.84-0.5-1.26-0.75c-6.82-3.92-13.58-7.94-20.33-12.02l2.29-1.36l-0.58,13.74c-0.21,4.58-0.35,9.16-0.51,13.74
					c-0.05,1.15-0.08,2.29-0.1,3.44l0.01,1.7c0.04,0.56,0.07,1.13,0.14,1.69c0.27,2.25,0.87,4.46,1.78,6.55
					C147.08,224.58,150.29,228.13,154.21,230.49z M154.21,230.49c-1.97-1.17-3.77-2.63-5.31-4.32c-1.56-1.68-2.88-3.59-3.87-5.67
					c-1.02-2.06-1.74-4.28-2.12-6.57c-0.41-2.3-0.28-4.62-0.41-6.9c-0.17-4.58-0.31-9.16-0.51-13.74l-0.58-13.74
					c-0.04-0.83,0.61-1.53,1.44-1.57c0.26-0.01,0.51,0.04,0.73,0.15l0.12,0.06c7.07,3.51,14.13,7.06,21.12,10.72
					c0.44,0.24,0.87,0.44,1.32,0.7l1.33,0.81c0.89,0.54,1.78,1.08,2.6,1.69c0.83,0.61,1.69,1.18,2.49,1.82l2.38,1.97
					c3.08,2.74,5.84,5.83,8.24,9.18c0.58,0.85,1.2,1.67,1.72,2.56l1.58,2.65l1.39,2.75c0.46,0.92,0.82,1.89,1.23,2.82
					c1.53,3.81,2.69,7.76,3.33,11.8c0.67,4.02,0.77,8.16,0.6,12.13l-0.5,11.82l0,0.09c-0.02,0.55-0.49,0.98-1.04,0.95
					c-0.18-0.01-0.35-0.06-0.49-0.15c-3.03-1.9-6.07-3.78-9.12-5.65c-3.04-1.88-6.09-3.75-9.16-5.57c-3.07-1.82-6.12-3.69-9.21-5.47
					L154.21,230.49z"/>
			</g>
			<g>
				<path class="st0" d="M154.21,177.8l37.28,21.14v-13.17c0-19.26-10.16-37.1-26.72-46.93l-21.83-11.97v31.14
					C142.94,166.14,147.23,173.66,154.21,177.8z"/>
				<path class="st1" d="M154.21,177.8l9.36,5.22c3.12,1.74,6.29,3.4,9.43,5.1c3.14,1.71,6.31,3.36,9.48,5.01
					c3.16,1.66,6.34,3.3,9.52,4.92l-1.53,0.89l-0.5-11.82c-0.18-3.91-0.53-7.66-1.42-11.38c-1.77-7.39-4.9-14.41-9.41-20.44
					c-2.23-3.03-4.75-5.83-7.52-8.38l-2.14-1.83c-0.72-0.61-1.49-1.14-2.24-1.72c-0.74-0.6-1.53-1.07-2.3-1.6l-1.16-0.78
					c-0.39-0.26-0.84-0.5-1.26-0.75c-6.82-3.92-13.58-7.94-20.33-12.02l2.29-1.36l-0.58,13.74c-0.21,4.58-0.35,9.16-0.51,13.74
					c-0.05,1.15-0.08,2.29-0.1,3.44l0.01,1.7c0.04,0.56,0.07,1.13,0.14,1.69c0.27,2.25,0.87,4.46,1.78,6.55
					C147.08,171.9,150.29,175.45,154.21,177.8z M154.21,177.8c-1.97-1.17-3.77-2.63-5.31-4.32c-1.56-1.68-2.88-3.59-3.87-5.67
					c-1.02-2.06-1.74-4.28-2.12-6.57c-0.41-2.3-0.28-4.62-0.41-6.9c-0.17-4.58-0.31-9.16-0.51-13.74l-0.58-13.74
					c-0.04-0.83,0.61-1.53,1.44-1.57c0.26-0.01,0.51,0.04,0.73,0.15l0.12,0.06c7.07,3.51,14.13,7.06,21.12,10.72
					c0.44,0.24,0.87,0.44,1.32,0.7l1.33,0.81c0.89,0.54,1.78,1.08,2.6,1.69c0.83,0.61,1.69,1.18,2.49,1.82l2.38,1.97
					c3.08,2.74,5.84,5.83,8.24,9.18c0.58,0.85,1.2,1.67,1.72,2.56l1.58,2.65l1.39,2.75c0.46,0.92,0.82,1.89,1.23,2.82
					c1.53,3.81,2.69,7.76,3.33,11.8c0.67,4.02,0.77,8.16,0.6,12.13l-0.5,11.82l0,0.09c-0.02,0.55-0.49,0.98-1.04,0.95
					c-0.18-0.01-0.35-0.06-0.49-0.15c-3.03-1.9-6.07-3.78-9.12-5.65c-3.04-1.88-6.09-3.75-9.16-5.57c-3.07-1.82-6.12-3.69-9.21-5.47
					L154.21,177.8z"/>
			</g>
			<g>
				<path class="st0" d="M154.21,125.12l37.28,21.14v-13.17c0-19.26-10.16-37.1-26.72-46.93l-21.83-11.97v31.14
					C142.94,113.45,147.23,120.97,154.21,125.12z"/>
				<path class="st1" d="M154.21,125.12l9.36,5.22c3.12,1.74,6.29,3.4,9.43,5.1c3.14,1.71,6.31,3.36,9.48,5.01
					c3.16,1.66,6.34,3.3,9.52,4.92l-1.53,0.89l-0.5-11.82c-0.18-3.91-0.53-7.66-1.42-11.38c-1.77-7.39-4.9-14.41-9.41-20.44
					c-2.23-3.03-4.75-5.83-7.52-8.38l-2.14-1.83c-0.72-0.61-1.49-1.14-2.24-1.72c-0.74-0.6-1.53-1.07-2.3-1.6l-1.16-0.78
					c-0.39-0.26-0.84-0.5-1.26-0.75c-6.82-3.92-13.58-7.94-20.33-12.02l2.29-1.36l-0.58,13.74c-0.21,4.58-0.35,9.16-0.51,13.74
					c-0.05,1.15-0.08,2.29-0.1,3.44l0.01,1.7c0.04,0.56,0.07,1.13,0.14,1.69c0.27,2.25,0.87,4.46,1.78,6.55
					C147.08,119.21,150.29,122.76,154.21,125.12z M154.21,125.12c-1.97-1.17-3.77-2.63-5.31-4.32c-1.56-1.68-2.88-3.59-3.87-5.67
					c-1.02-2.06-1.74-4.28-2.12-6.57c-0.41-2.3-0.28-4.62-0.41-6.9c-0.17-4.58-0.31-9.16-0.51-13.74l-0.58-13.74
					c-0.04-0.83,0.61-1.53,1.44-1.57c0.26-0.01,0.51,0.04,0.73,0.15l0.12,0.06c7.07,3.51,14.13,7.06,21.12,10.72
					c0.44,0.24,0.87,0.44,1.32,0.7l1.33,0.81c0.89,0.54,1.78,1.08,2.6,1.69c0.83,0.61,1.69,1.18,2.49,1.82l2.38,1.97
					c3.08,2.74,5.84,5.83,8.24,9.18c0.58,0.85,1.2,1.67,1.72,2.56l1.58,2.65l1.39,2.75c0.46,0.92,0.82,1.89,1.23,2.82
					c1.53,3.81,2.69,7.76,3.33,11.8c0.67,4.02,0.77,8.16,0.6,12.13l-0.5,11.82l0,0.09c-0.02,0.55-0.49,0.98-1.04,0.95
					c-0.18-0.01-0.35-0.06-0.49-0.15c-3.03-1.9-6.07-3.78-9.12-5.65c-3.04-1.88-6.09-3.75-9.16-5.57c-3.07-1.82-6.12-3.69-9.21-5.47
					L154.21,125.12z"/>
			</g>
		</g>
		<g>
			<polygon class="st0" points="193.56,480.61 193.56,480.61 191.5,414.43 195.63,414.43 			"/>
			<path class="st1" d="M193.56,480.61c-0.17-5.16-0.43-10.47-0.76-15.81l-0.54-8.12l-0.58-8.29c-0.39-5.57-0.74-11.25-1.03-16.92
				c-0.24-5.68-0.51-11.35-0.64-16.99l0-0.02c-0.02-0.82,0.63-1.49,1.44-1.51c0.01,0,0.03,0,0.04,0l4.13,0.02l0.01,0
				c0.81,0,1.46,0.66,1.46,1.47c0,0.01,0,0.03,0,0.04c-0.18,5.64-0.42,11.3-0.72,16.96c-0.28,5.67-0.65,11.31-1.02,16.86
				c-0.37,5.56-0.76,11.01-1.07,16.39C193.98,470.07,193.74,475.38,193.56,480.61z M193.56,480.61c0.17-5.8,0.27-11.52,0.31-17.17
				c0.04-5.65,0-11.23-0.03-16.69c-0.03-5.47-0.06-10.86,0.01-16.22c0.04-5.37,0.15-10.74,0.31-16.13l1.47,1.51l-4.13,0.02
				l1.48-1.53c0.21,5.39,0.29,10.75,0.39,16.1c0.06,5.36,0.05,10.71,0,16.17l-0.06,8.26l-0.02,8.43
				C193.3,469.02,193.39,474.74,193.56,480.61z"/>
		</g>
	</g>
	<g>
		<g>
			<path class="st0" d="M264.74,464l-29.24-13.36l8-5.79c11.7-8.47,27.01-10.14,40.26-4.4l16.87,8l-18.92,13.69
				C276.78,465.71,270.33,466.42,264.74,464z"/>
			<path class="st1" d="M264.74,464l-7.33-3.29c-2.44-1.1-4.92-2.13-7.38-3.19c-2.46-1.07-4.93-2.1-7.41-3.12l-7.44-3.06
				c-0.38-0.16-0.57-0.6-0.41-0.98c0.05-0.12,0.13-0.22,0.23-0.3l0.05-0.04l6.96-5.5c2.33-1.85,4.9-3.61,7.63-4.97
				c2.73-1.38,5.65-2.42,8.63-3.16c2.99-0.76,6.07-1.13,9.16-1.15c3.09-0.02,6.18,0.31,9.2,0.97l2.24,0.58
				c0.74,0.2,1.47,0.48,2.2,0.71c0.73,0.23,1.46,0.53,2.17,0.84c0.73,0.3,1.44,0.6,2.08,0.95c5.3,2.64,10.56,5.37,15.8,8.12
				l0.09,0.04c0.55,0.29,0.76,0.97,0.47,1.53c-0.09,0.17-0.22,0.32-0.38,0.42c-5.73,3.79-11.48,7.57-17.18,11.42
				c-1.44,0.92-2.79,2.02-4.37,2.78c-1.56,0.77-3.22,1.31-4.92,1.6C271.45,465.8,267.89,465.35,264.74,464z M264.74,464
				c3.16,1.35,6.73,1.74,10.08,1.03c1.67-0.36,3.28-0.97,4.76-1.8c1.48-0.81,2.8-1.93,4.17-2.97c5.44-4.21,10.82-8.49,16.22-12.75
				l0.18,1.99c-5.44-2.31-10.86-4.65-16.24-7.07c-0.68-0.32-1.34-0.56-1.99-0.8c-0.66-0.23-1.3-0.51-1.98-0.69
				c-0.68-0.2-1.34-0.44-2.03-0.6l-2.06-0.5c-2.76-0.57-5.58-0.87-8.4-0.89c-5.65-0.09-11.29,1.1-16.56,3.27
				c-2.65,1.1-5.08,2.54-7.54,4.14l-7.4,4.9l-0.13-1.32l7.18,3.62c2.4,1.2,4.79,2.4,7.21,3.56c2.41,1.16,4.81,2.36,7.24,3.49
				L264.74,464z"/>
		</g>
		<g>
			<path class="st0" d="M296.75,440.83l-29.24-13.36l8-5.79c11.7-8.47,27.01-10.14,40.26-4.4l16.87,8l-18.92,13.69
				C308.79,442.55,302.34,443.25,296.75,440.83z"/>
			<path class="st1" d="M296.75,440.83l-7.33-3.29c-2.44-1.1-4.92-2.13-7.38-3.19c-2.46-1.07-4.93-2.1-7.41-3.12l-7.44-3.06
				c-0.38-0.16-0.57-0.6-0.41-0.98c0.05-0.12,0.13-0.22,0.23-0.3l0.05-0.04l6.96-5.5c2.33-1.85,4.9-3.61,7.63-4.97
				c2.73-1.38,5.65-2.42,8.63-3.16c2.99-0.76,6.07-1.13,9.16-1.15c3.09-0.02,6.18,0.31,9.2,0.97l2.24,0.58
				c0.74,0.2,1.47,0.48,2.2,0.71c0.73,0.23,1.46,0.53,2.17,0.84c0.73,0.3,1.44,0.6,2.08,0.95c5.3,2.64,10.56,5.37,15.8,8.12
				l0.09,0.04c0.55,0.29,0.76,0.97,0.47,1.53c-0.09,0.17-0.22,0.32-0.38,0.42c-5.73,3.79-11.48,7.57-17.18,11.42
				c-1.44,0.92-2.79,2.02-4.37,2.78c-1.56,0.77-3.22,1.31-4.92,1.6C303.46,442.63,299.9,442.19,296.75,440.83z M296.75,440.83
				c3.16,1.35,6.73,1.74,10.08,1.03c1.67-0.36,3.28-0.97,4.76-1.8c1.48-0.81,2.8-1.93,4.17-2.97c5.44-4.21,10.82-8.49,16.22-12.75
				l0.18,1.99c-5.44-2.31-10.86-4.65-16.24-7.07c-0.68-0.32-1.34-0.56-1.99-0.8c-0.66-0.23-1.3-0.51-1.98-0.69
				c-0.68-0.2-1.34-0.44-2.03-0.6l-2.06-0.5c-2.76-0.57-5.58-0.87-8.4-0.89c-5.65-0.09-11.29,1.1-16.56,3.27
				c-2.65,1.1-5.08,2.54-7.54,4.14l-7.4,4.9l-0.13-1.32l7.18,3.62c2.4,1.2,4.79,2.4,7.21,3.56c2.41,1.16,4.81,2.36,7.24,3.49
				L296.75,440.83z"/>
		</g>
		<g>
			<path class="st0" d="M328.76,417.67l-29.24-13.36l8-5.79c11.7-8.47,27.01-10.14,40.26-4.4l16.87,8l-18.92,13.69
				C340.8,419.39,334.35,420.09,328.76,417.67z"/>
			<path class="st1" d="M328.76,417.67l-7.33-3.29c-2.44-1.1-4.92-2.13-7.38-3.19c-2.46-1.07-4.93-2.1-7.41-3.12l-7.44-3.06
				c-0.38-0.16-0.57-0.6-0.41-0.98c0.05-0.12,0.13-0.22,0.23-0.3l0.05-0.04l6.96-5.5c2.33-1.85,4.9-3.61,7.63-4.97
				c2.73-1.38,5.65-2.42,8.63-3.16c2.99-0.76,6.07-1.13,9.16-1.15c3.09-0.02,6.18,0.31,9.2,0.97l2.24,0.58
				c0.74,0.2,1.47,0.48,2.2,0.71c0.73,0.23,1.46,0.53,2.17,0.84c0.73,0.3,1.44,0.6,2.08,0.95c5.3,2.64,10.56,5.37,15.8,8.12
				l0.09,0.04c0.55,0.29,0.76,0.97,0.47,1.53c-0.09,0.17-0.22,0.32-0.38,0.42c-5.73,3.79-11.48,7.57-17.18,11.42
				c-1.44,0.92-2.79,2.02-4.37,2.78c-1.56,0.77-3.22,1.31-4.92,1.6C335.47,419.47,331.91,419.03,328.76,417.67z M328.76,417.67
				c3.16,1.35,6.73,1.74,10.08,1.03c1.67-0.36,3.28-0.97,4.76-1.8c1.48-0.81,2.8-1.93,4.17-2.97c5.44-4.21,10.82-8.49,16.22-12.75
				l0.18,1.99c-5.44-2.31-10.86-4.65-16.24-7.07c-0.68-0.32-1.34-0.56-1.99-0.8c-0.66-0.23-1.3-0.51-1.98-0.69
				c-0.68-0.2-1.34-0.44-2.03-0.6l-2.06-0.5c-2.76-0.57-5.58-0.87-8.4-0.89c-5.65-0.09-11.29,1.1-16.56,3.27
				c-2.65,1.1-5.08,2.54-7.54,4.14l-7.4,4.9l-0.13-1.32l7.18,3.62c2.4,1.2,4.79,2.4,7.21,3.56c2.41,1.16,4.81,2.36,7.24,3.49
				L328.76,417.67z"/>
		</g>
		<g>
			<path class="st0" d="M360.77,394.51l-29.24-13.36l8-5.79c11.7-8.47,27.01-10.14,40.26-4.4l16.87,8l-18.92,13.69
				C372.82,396.22,366.36,396.93,360.77,394.51z"/>
			<path class="st1" d="M360.77,394.51l-7.33-3.29c-2.44-1.1-4.92-2.13-7.38-3.19c-2.46-1.07-4.93-2.1-7.41-3.12l-7.44-3.06
				c-0.38-0.16-0.57-0.6-0.41-0.98c0.05-0.12,0.13-0.22,0.23-0.3l0.05-0.04l6.96-5.5c2.33-1.85,4.9-3.61,7.63-4.97
				c2.73-1.38,5.65-2.42,8.63-3.16c2.99-0.76,6.07-1.13,9.16-1.15c3.09-0.02,6.18,0.31,9.2,0.97l2.24,0.58
				c0.74,0.2,1.47,0.48,2.2,0.71c0.73,0.23,1.46,0.53,2.17,0.84c0.73,0.3,1.44,0.6,2.08,0.95c5.3,2.64,10.56,5.37,15.8,8.12
				l0.09,0.04c0.55,0.29,0.76,0.97,0.47,1.53c-0.09,0.17-0.22,0.32-0.38,0.42c-5.73,3.79-11.48,7.57-17.18,11.42
				c-1.44,0.92-2.79,2.02-4.37,2.78c-1.56,0.77-3.22,1.31-4.92,1.6C367.48,396.31,363.93,395.86,360.77,394.51z M360.77,394.51
				c3.16,1.35,6.73,1.74,10.08,1.03c1.67-0.36,3.28-0.97,4.76-1.8c1.48-0.81,2.8-1.93,4.17-2.97c5.44-4.21,10.82-8.49,16.22-12.75
				l0.18,1.99c-5.44-2.31-10.86-4.65-16.24-7.07c-0.68-0.32-1.34-0.56-1.99-0.8c-0.66-0.23-1.3-0.51-1.98-0.69
				c-0.68-0.2-1.34-0.44-2.03-0.6l-2.06-0.5c-2.76-0.57-5.58-0.87-8.4-0.89c-5.65-0.09-11.29,1.1-16.56,3.27
				c-2.65,1.1-5.08,2.54-7.54,4.14l-7.4,4.9l-0.13-1.32l7.18,3.62c2.4,1.2,4.79,2.4,7.21,3.56c2.41,1.16,4.81,2.36,7.24,3.49
				L360.77,394.51z"/>
		</g>
		<g>
			<path class="st0" d="M392.79,371.34l-29.24-13.36l8-5.79c11.7-8.47,27.01-10.14,40.26-4.4l16.87,8l-18.92,13.69
				C404.83,373.06,398.38,373.76,392.79,371.34z"/>
			<path class="st1" d="M392.79,371.34l-7.33-3.29c-2.44-1.1-4.92-2.13-7.38-3.19c-2.46-1.07-4.93-2.1-7.41-3.12l-7.44-3.06
				c-0.38-0.16-0.57-0.6-0.41-0.98c0.05-0.12,0.13-0.22,0.23-0.3l0.05-0.04l6.96-5.5c2.33-1.85,4.9-3.61,7.63-4.97
				c2.73-1.38,5.65-2.42,8.63-3.16c2.99-0.76,6.07-1.13,9.16-1.15c3.09-0.02,6.18,0.31,9.2,0.97l2.24,0.58
				c0.74,0.2,1.47,0.48,2.2,0.71c0.73,0.23,1.46,0.53,2.17,0.84c0.73,0.3,1.44,0.6,2.08,0.95c5.3,2.64,10.56,5.37,15.8,8.12
				l0.09,0.04c0.55,0.29,0.76,0.97,0.47,1.53c-0.09,0.17-0.22,0.32-0.38,0.42c-5.73,3.79-11.48,7.57-17.18,11.42
				c-1.44,0.92-2.79,2.02-4.37,2.78c-1.56,0.77-3.22,1.31-4.92,1.6C399.49,373.14,395.94,372.7,392.79,371.34z M392.79,371.34
				c3.16,1.35,6.73,1.74,10.08,1.03c1.67-0.36,3.28-0.97,4.76-1.8c1.48-0.81,2.8-1.93,4.17-2.97c5.44-4.21,10.82-8.49,16.22-12.75
				l0.18,1.99c-5.44-2.31-10.86-4.65-16.24-7.07c-0.68-0.32-1.34-0.56-1.99-0.8c-0.66-0.23-1.3-0.51-1.98-0.69
				c-0.68-0.2-1.34-0.44-2.03-0.6l-2.06-0.5c-2.76-0.57-5.58-0.87-8.4-0.89c-5.65-0.09-11.29,1.1-16.56,3.27
				c-2.65,1.1-5.08,2.54-7.54,4.14l-7.4,4.9l-0.13-1.32l7.18,3.62c2.4,1.2,4.79,2.4,7.21,3.56c2.41,1.16,4.81,2.36,7.24,3.49
				L392.79,371.34z"/>
		</g>
		<g>
			<path class="st0" d="M424.8,348.18l-29.24-13.36l8-5.79c11.7-8.47,27.01-10.14,40.26-4.4l16.87,8l-18.92,13.69
				C436.84,349.9,430.39,350.6,424.8,348.18z"/>
			<path class="st1" d="M424.8,348.18l-7.33-3.29c-2.44-1.1-4.92-2.13-7.38-3.19c-2.46-1.07-4.93-2.1-7.41-3.12l-7.44-3.06
				c-0.38-0.16-0.57-0.6-0.41-0.98c0.05-0.12,0.13-0.22,0.23-0.3l0.05-0.04l6.96-5.5c2.33-1.85,4.9-3.61,7.63-4.97
				c2.73-1.38,5.65-2.42,8.63-3.16c2.99-0.76,6.07-1.13,9.16-1.15c3.09-0.02,6.18,0.31,9.2,0.97l2.24,0.58
				c0.74,0.2,1.47,0.48,2.2,0.71c0.73,0.23,1.46,0.53,2.17,0.84c0.73,0.3,1.44,0.6,2.08,0.95c5.3,2.64,10.56,5.37,15.8,8.12
				l0.09,0.04c0.55,0.29,0.76,0.97,0.47,1.53c-0.09,0.17-0.22,0.32-0.38,0.42c-5.73,3.79-11.48,7.57-17.18,11.42
				c-1.44,0.92-2.79,2.02-4.37,2.78c-1.56,0.77-3.22,1.31-4.92,1.6C431.51,349.98,427.95,349.54,424.8,348.18z M424.8,348.18
				c3.16,1.35,6.73,1.74,10.08,1.03c1.67-0.36,3.28-0.97,4.76-1.8c1.48-0.81,2.8-1.93,4.17-2.97c5.44-4.21,10.82-8.49,16.22-12.75
				l0.18,1.99c-5.44-2.31-10.86-4.65-16.24-7.07c-0.68-0.32-1.34-0.56-1.99-0.8c-0.66-0.23-1.3-0.51-1.98-0.69
				c-0.68-0.2-1.34-0.44-2.03-0.6l-2.06-0.5c-2.76-0.57-5.58-0.87-8.4-0.89c-5.65-0.09-11.29,1.1-16.56,3.27
				c-2.65,1.1-5.08,2.54-7.54,4.14l-7.4,4.9l-0.13-1.32l7.18,3.62c2.4,1.2,4.79,2.4,7.21,3.56c2.41,1.16,4.81,2.36,7.24,3.49
				L424.8,348.18z"/>
		</g>
		<g>
			<path class="st0" d="M450.53,310.58l-31.71,5.26l3.4-9.28c4.98-13.56,16.73-23.5,30.94-26.14l18.46-2.79l-8.04,21.93
				C461.48,305.27,456.52,309.46,450.53,310.58z"/>
			<path class="st1" d="M450.53,310.58l-7.92,1.37c-2.64,0.46-5.27,0.98-7.9,1.47c-2.63,0.49-5.26,1.02-7.89,1.55l-7.88,1.62
				c-0.41,0.08-0.8-0.18-0.89-0.58c-0.03-0.13-0.02-0.26,0.02-0.38l0.02-0.06l2.7-8.45c0.9-2.84,2.05-5.73,3.55-8.39
				c1.5-2.68,3.33-5.16,5.39-7.45c2.05-2.3,4.4-4.33,6.96-6.07c2.55-1.74,5.3-3.2,8.17-4.33l2.18-0.77
				c0.73-0.25,1.48-0.43,2.22-0.64c0.74-0.22,1.5-0.37,2.27-0.52c0.77-0.16,1.53-0.3,2.25-0.38c5.87-0.77,11.76-1.45,17.64-2.09
				l0.1-0.01c0.62-0.07,1.18,0.38,1.25,1c0.02,0.19-0.01,0.39-0.08,0.56c-2.64,6.35-5.29,12.69-7.87,19.07
				c-0.68,1.57-1.19,3.24-2.07,4.75c-0.86,1.51-1.94,2.89-3.19,4.08C457.1,308.33,453.9,309.94,450.53,310.58z M450.53,310.58
				c3.37-0.65,6.55-2.32,8.93-4.78c1.18-1.23,2.18-2.64,2.95-4.15c0.78-1.5,1.24-3.16,1.79-4.79c2.16-6.53,4.23-13.08,6.33-19.63
				l1.26,1.55c-5.8,1.13-11.6,2.21-17.42,3.21c-0.74,0.11-1.43,0.28-2.1,0.45c-0.68,0.17-1.36,0.3-2.03,0.53
				c-0.67,0.21-1.36,0.39-2.02,0.63l-1.98,0.74c-2.61,1.07-5.11,2.39-7.46,3.95c-4.74,3.08-8.75,7.22-11.9,11.96
				c-1.58,2.39-2.8,4.94-3.94,7.65l-3.4,8.19l-0.85-1.02l7.98-1.01c2.66-0.34,5.32-0.69,7.97-1.08c2.65-0.39,5.31-0.74,7.96-1.16
				L450.53,310.58z"/>
		</g>
		<g>
			<g>
				<path class="st0" d="M230.13,416.17l3.54,31.95l8-5.79c11.7-8.47,18.08-22.48,16.77-36.87l-2.32-18.53l-18.92,13.69
					C232.27,404.2,229.58,410.11,230.13,416.17z"/>
				<path class="st1" d="M230.13,416.17l0.94,7.98c0.31,2.66,0.7,5.31,1.05,7.97c0.34,2.66,0.73,5.31,1.13,7.96l1.2,7.95l-1.21-0.54
					l6.96-5.5c2.29-1.83,4.42-3.69,6.29-5.87c3.71-4.32,6.6-9.31,8.29-14.7c0.86-2.68,1.45-5.45,1.78-8.25l0.17-2.11
					c0.06-0.7,0.04-1.41,0.06-2.12c0.04-0.71-0.02-1.4-0.04-2.1c-0.02-0.69-0.04-1.39-0.13-2.14c-0.62-5.87-1.15-11.75-1.64-17.63
					l1.83,0.8c-5.73,3.79-11.48,7.57-17.18,11.42c-1.42,0.97-2.89,1.87-4.13,3.03c-1.25,1.15-2.33,2.49-3.2,3.96
					C230.59,409.24,229.84,412.75,230.13,416.17z M230.13,416.17c-0.3-3.42,0.39-6.93,2.03-9.97c0.81-1.53,1.84-2.94,3.06-4.18
					c1.22-1.26,2.68-2.2,4.01-3.28c5.44-4.21,10.82-8.49,16.22-12.75c0.49-0.39,1.2-0.3,1.59,0.19c0.12,0.15,0.2,0.33,0.23,0.51
					l0.02,0.1c0.98,5.84,1.92,11.69,2.77,17.55c0.13,0.72,0.19,1.49,0.25,2.27c0.06,0.78,0.13,1.56,0.11,2.33
					c-0.01,0.77,0.03,1.54-0.01,2.31l-0.15,2.31c-0.31,3.07-0.97,6.11-1.95,9.04c-0.98,2.93-2.3,5.75-3.95,8.34
					c-1.64,2.61-3.53,5.05-5.7,7.21c-2.15,2.17-4.62,4.06-7.11,5.7l-7.4,4.9l-0.05,0.03c-0.35,0.23-0.81,0.13-1.04-0.21
					c-0.07-0.11-0.11-0.24-0.12-0.36l-0.58-8.02c-0.2-2.67-0.4-5.35-0.65-8.01c-0.24-2.67-0.45-5.34-0.73-8L230.13,416.17z"/>
			</g>
			<g>
				<path class="st0" d="M262.15,393.01l3.54,31.95l8-5.79c11.7-8.47,18.08-22.48,16.77-36.87l-2.32-18.53l-18.92,13.69
					C264.28,381.03,261.59,386.94,262.15,393.01z"/>
				<path class="st1" d="M262.15,393.01l0.94,7.98c0.31,2.66,0.7,5.31,1.05,7.97c0.34,2.66,0.73,5.31,1.13,7.96l1.2,7.95l-1.21-0.54
					l6.96-5.5c2.29-1.83,4.42-3.69,6.29-5.87c3.71-4.32,6.6-9.31,8.29-14.7c0.86-2.68,1.45-5.45,1.78-8.25l0.17-2.11
					c0.06-0.7,0.04-1.41,0.06-2.12c0.04-0.71-0.02-1.4-0.04-2.1c-0.02-0.69-0.04-1.39-0.13-2.14c-0.62-5.87-1.15-11.75-1.64-17.63
					l1.83,0.8c-5.73,3.79-11.48,7.57-17.18,11.42c-1.42,0.97-2.89,1.87-4.13,3.03c-1.25,1.15-2.33,2.49-3.2,3.96
					C262.6,386.08,261.85,389.59,262.15,393.01z M262.15,393.01c-0.3-3.42,0.39-6.94,2.03-9.97c0.81-1.53,1.84-2.94,3.06-4.18
					c1.22-1.26,2.68-2.2,4.01-3.28c5.44-4.21,10.82-8.49,16.22-12.75c0.49-0.39,1.2-0.3,1.59,0.19c0.12,0.15,0.2,0.33,0.23,0.51
					l0.02,0.1c0.98,5.84,1.92,11.69,2.77,17.55c0.13,0.72,0.19,1.49,0.25,2.27c0.06,0.78,0.13,1.56,0.11,2.33
					c-0.01,0.77,0.03,1.54-0.01,2.31l-0.15,2.31c-0.31,3.07-0.97,6.11-1.95,9.04c-0.98,2.93-2.3,5.75-3.95,8.34
					c-1.64,2.61-3.53,5.05-5.7,7.21c-2.15,2.17-4.62,4.06-7.11,5.7l-7.4,4.9l-0.05,0.03c-0.35,0.23-0.81,0.13-1.04-0.21
					c-0.07-0.11-0.11-0.24-0.12-0.36l-0.58-8.02c-0.2-2.67-0.4-5.35-0.65-8.01c-0.24-2.67-0.45-5.34-0.73-8L262.15,393.01z"/>
			</g>
			<g>
				<path class="st0" d="M294.16,369.85l3.54,31.95l8-5.79c11.7-8.47,18.08-22.48,16.77-36.87l-2.32-18.53l-18.92,13.69
					C296.29,357.87,293.61,363.78,294.16,369.85z"/>
				<path class="st1" d="M294.16,369.85l0.94,7.98c0.31,2.66,0.7,5.31,1.05,7.97c0.34,2.66,0.73,5.31,1.13,7.96l1.2,7.95l-1.21-0.54
					l6.96-5.5c2.29-1.83,4.42-3.69,6.29-5.87c3.71-4.32,6.6-9.31,8.29-14.7c0.86-2.68,1.45-5.45,1.78-8.25l0.17-2.11
					c0.06-0.7,0.04-1.41,0.06-2.12c0.04-0.71-0.02-1.4-0.04-2.1c-0.02-0.69-0.04-1.39-0.13-2.14c-0.62-5.87-1.15-11.75-1.64-17.63
					l1.83,0.8c-5.73,3.79-11.48,7.57-17.18,11.42c-1.42,0.97-2.89,1.87-4.13,3.03c-1.25,1.15-2.33,2.49-3.2,3.96
					C294.61,362.91,293.87,366.43,294.16,369.85z M294.16,369.85c-0.3-3.42,0.39-6.94,2.03-9.97c0.81-1.53,1.84-2.94,3.06-4.18
					c1.22-1.26,2.68-2.2,4.01-3.28c5.44-4.21,10.82-8.49,16.22-12.75c0.49-0.39,1.2-0.3,1.59,0.19c0.12,0.15,0.2,0.33,0.23,0.51
					l0.02,0.1c0.98,5.84,1.92,11.69,2.77,17.55c0.13,0.72,0.19,1.49,0.25,2.27c0.06,0.78,0.13,1.56,0.11,2.33
					c-0.01,0.77,0.03,1.54-0.01,2.31l-0.15,2.31c-0.31,3.07-0.97,6.11-1.95,9.04c-0.98,2.93-2.3,5.75-3.95,8.34
					c-1.64,2.61-3.53,5.05-5.7,7.21c-2.15,2.17-4.62,4.06-7.11,5.7l-7.4,4.9l-0.05,0.03c-0.35,0.23-0.81,0.13-1.04-0.21
					c-0.07-0.11-0.11-0.24-0.12-0.36l-0.58-8.02c-0.2-2.67-0.4-5.35-0.65-8.01c-0.24-2.67-0.45-5.34-0.73-8L294.16,369.85z"/>
			</g>
			<g>
				<path class="st0" d="M326.17,346.68l3.54,31.95l8-5.79c11.7-8.47,18.08-22.48,16.77-36.87l-2.32-18.53l-18.92,13.69
					C328.31,334.71,325.62,340.62,326.17,346.68z"/>
				<path class="st1" d="M326.17,346.68l0.94,7.98c0.31,2.66,0.7,5.31,1.05,7.97c0.34,2.66,0.73,5.31,1.13,7.96l1.2,7.95l-1.21-0.54
					l6.96-5.5c2.29-1.83,4.42-3.69,6.29-5.87c3.71-4.32,6.6-9.31,8.29-14.7c0.86-2.68,1.45-5.45,1.78-8.25l0.17-2.11
					c0.06-0.7,0.04-1.41,0.06-2.12c0.04-0.71-0.02-1.4-0.04-2.1c-0.02-0.69-0.04-1.39-0.13-2.14c-0.62-5.87-1.15-11.75-1.64-17.63
					l1.83,0.8c-5.73,3.79-11.48,7.57-17.18,11.42c-1.42,0.97-2.89,1.87-4.13,3.03c-1.25,1.15-2.33,2.49-3.2,3.96
					C326.62,339.75,325.88,343.26,326.17,346.68z M326.17,346.68c-0.3-3.42,0.39-6.94,2.03-9.97c0.81-1.53,1.84-2.94,3.06-4.18
					c1.22-1.26,2.68-2.2,4.01-3.28c5.44-4.21,10.82-8.49,16.22-12.75c0.49-0.39,1.2-0.3,1.59,0.19c0.12,0.15,0.2,0.33,0.23,0.51
					l0.02,0.1c0.98,5.84,1.92,11.69,2.77,17.55c0.13,0.72,0.19,1.49,0.25,2.27c0.06,0.78,0.13,1.56,0.11,2.33
					c-0.01,0.77,0.03,1.54-0.01,2.31l-0.15,2.31c-0.31,3.07-0.97,6.11-1.95,9.04c-0.98,2.93-2.3,5.75-3.95,8.34
					c-1.64,2.61-3.53,5.05-5.7,7.21c-2.15,2.17-4.62,4.06-7.11,5.7l-7.4,4.9l-0.05,0.03c-0.35,0.23-0.81,0.13-1.04-0.21
					c-0.07-0.11-0.11-0.24-0.12-0.36l-0.58-8.02c-0.2-2.67-0.4-5.35-0.65-8.01c-0.24-2.67-0.45-5.34-0.73-8L326.17,346.68z"/>
			</g>
			<g>
				<path class="st0" d="M358.18,323.52l3.54,31.95l8-5.79c11.7-8.47,18.08-22.48,16.77-36.87l-2.32-18.53l-18.92,13.69
					C360.32,311.54,357.63,317.45,358.18,323.52z"/>
				<path class="st1" d="M358.18,323.52l0.94,7.98c0.31,2.66,0.7,5.31,1.05,7.97c0.34,2.66,0.73,5.31,1.13,7.96l1.2,7.95l-1.21-0.54
					l6.96-5.5c2.29-1.83,4.42-3.69,6.29-5.87c3.71-4.32,6.6-9.31,8.29-14.7c0.86-2.68,1.45-5.45,1.78-8.25l0.17-2.11
					c0.06-0.7,0.04-1.41,0.06-2.12c0.04-0.71-0.02-1.4-0.04-2.1c-0.02-0.69-0.04-1.39-0.13-2.14c-0.62-5.87-1.15-11.75-1.64-17.63
					l1.83,0.8c-5.73,3.79-11.48,7.57-17.18,11.42c-1.42,0.97-2.89,1.87-4.13,3.03c-1.25,1.15-2.33,2.49-3.2,3.96
					C358.63,316.59,357.89,320.1,358.18,323.52z M358.18,323.52c-0.3-3.42,0.39-6.94,2.03-9.97c0.81-1.53,1.84-2.94,3.06-4.18
					c1.22-1.26,2.68-2.2,4.01-3.28c5.44-4.21,10.82-8.49,16.22-12.75c0.49-0.39,1.2-0.3,1.59,0.19c0.12,0.15,0.2,0.33,0.23,0.51
					l0.02,0.1c0.98,5.84,1.92,11.69,2.77,17.55c0.13,0.72,0.19,1.49,0.25,2.27c0.06,0.78,0.13,1.56,0.11,2.33
					c-0.01,0.77,0.03,1.54-0.01,2.31l-0.15,2.31c-0.31,3.07-0.97,6.11-1.95,9.04c-0.98,2.93-2.3,5.75-3.95,8.34
					c-1.64,2.61-3.53,5.05-5.7,7.21c-2.15,2.17-4.62,4.06-7.11,5.7l-7.4,4.9l-0.05,0.03c-0.35,0.23-0.81,0.13-1.04-0.21
					c-0.07-0.11-0.11-0.24-0.12-0.36l-0.58-8.02c-0.2-2.67-0.4-5.35-0.65-8.01c-0.24-2.67-0.45-5.34-0.73-8L358.18,323.52z"/>
			</g>
			<g>
				<path class="st0" d="M390.2,300.36l3.54,31.95l8-5.79c11.7-8.47,18.08-22.48,16.77-36.87l-2.32-18.53l-18.92,13.69
					C392.33,288.38,389.64,294.29,390.2,300.36z"/>
				<path class="st1" d="M390.2,300.36l0.94,7.98c0.31,2.66,0.7,5.31,1.05,7.97c0.34,2.66,0.73,5.31,1.13,7.96l1.2,7.95l-1.21-0.54
					l6.96-5.5c2.29-1.83,4.42-3.69,6.29-5.87c3.71-4.32,6.6-9.31,8.29-14.7c0.86-2.68,1.45-5.45,1.78-8.25l0.17-2.11
					c0.06-0.7,0.04-1.41,0.06-2.12c0.04-0.71-0.02-1.4-0.04-2.1c-0.02-0.69-0.04-1.39-0.13-2.14c-0.62-5.87-1.15-11.75-1.64-17.63
					l1.83,0.8c-5.73,3.79-11.48,7.57-17.18,11.42c-1.42,0.97-2.89,1.87-4.13,3.03c-1.25,1.15-2.33,2.49-3.2,3.96
					C390.65,293.42,389.9,296.93,390.2,300.36z M390.2,300.36c-0.3-3.42,0.39-6.93,2.03-9.97c0.81-1.53,1.84-2.94,3.06-4.18
					c1.22-1.26,2.68-2.2,4.01-3.28c5.44-4.21,10.82-8.49,16.22-12.75c0.49-0.39,1.2-0.3,1.59,0.19c0.12,0.15,0.2,0.33,0.23,0.51
					l0.02,0.1c0.98,5.84,1.92,11.69,2.77,17.55c0.13,0.72,0.19,1.49,0.25,2.27c0.06,0.78,0.13,1.56,0.11,2.33
					c-0.01,0.77,0.03,1.54-0.01,2.31l-0.15,2.31c-0.31,3.07-0.97,6.11-1.95,9.04c-0.98,2.93-2.3,5.75-3.95,8.34
					c-1.64,2.61-3.53,5.05-5.7,7.21c-2.15,2.17-4.62,4.06-7.11,5.7l-7.4,4.9l-0.05,0.03c-0.35,0.23-0.81,0.13-1.04-0.21
					c-0.07-0.11-0.11-0.24-0.12-0.36l-0.58-8.02c-0.2-2.67-0.4-5.35-0.65-8.01c-0.24-2.67-0.45-5.34-0.73-8L390.2,300.36z"/>
			</g>
		</g>
		<g>
			<polygon class="st0" points="191.5,480.56 191.5,480.56 230.8,450.21 232.61,452.72 			"/>
			<path class="st1" d="M191.5,480.56c3.06-2.38,6.2-4.87,9.28-7.41c3.12-2.56,6.26-5.2,9.47-7.89c3.21-2.69,6.51-5.4,9.83-8.06
				c3.35-2.65,6.67-5.3,10.04-7.86l0.01-0.01c0.49-0.37,1.18-0.28,1.55,0.21l0.02,0.02l1.81,2.52c0.36,0.49,0.25,1.18-0.25,1.54
				c-0.01,0.01-0.02,0.02-0.03,0.02c-6.99,4.73-14.22,9.39-21.32,13.81L201.49,474C198.11,476.15,194.74,478.37,191.5,480.56z
				 M191.5,480.56c3.61-2.45,7.1-4.87,10.57-7.36c3.46-2.47,6.82-4.94,10.13-7.36c6.61-4.86,13.09-9.48,19.8-14.03l-0.27,1.56
				l-1.83-2.51l1.58,0.23c-3.18,2.5-6.4,4.9-9.61,7.31c-3.23,2.39-6.48,4.74-9.82,7.11c-3.33,2.37-6.74,4.78-10.18,7.28
				C198.39,475.32,194.99,477.88,191.5,480.56z"/>
		</g>
	</g>
</g>
</svg>
