<?xml version="1.0" encoding="utf-8"?>
<!-- Generator: Adobe Illustrator 24.1.2, SVG Export Plug-In . SVG Version: 6.00 Build 0)  -->
<svg version="1.1" xmlns="http://www.w3.org/2000/svg" xmlns:xlink="http://www.w3.org/1999/xlink" x="0px" y="0px"
	 viewBox="0 0 500 500" style="enable-background:new 0 0 500 500;" xml:space="preserve">
<style type="text/css">
	.st0{fill:#44AB3F;}
	.st1{fill:#FFFFFF;}
	.st2{fill:#339900;}
	.st3{fill:#369331;}
</style>
<g id="Layer_2">
	<g>
		<g>
			<path class="st0" d="M370.84,319.84c8.72,12.36,2.32,23.79,2.32,23.79c-12.85,16.98-34.74-1.84-34.74-1.84l3.21,10.25
				c4.13,11.48-3.33,19.62-3.33,19.62c-7.71,10.52-24.33,4.97-40.96-4.95l-1.76,4.95c-3.48,11.36-9.95,12.39-9.95,12.39
				c-49.58,25.82-171.45-142.53-171.45-142.53L161,135.83l90.8,8.26l149.08,133.77c0,0,14.48,13.71,1.98,32.77
				c-9.18,14.01-26.39,6.98-26.39,6.98l-11.26-8.18L370.84,319.84z"/>
		</g>
	</g>
	<g>
		<g>
			<path class="st1" d="M251.8,331.38c7.15,4.88,14.12,9.82,21.1,14.7c6.98,4.86,13.97,9.65,21.08,14.1
				c7.11,4.42,14.38,8.6,21.9,11.45c3.74,1.4,7.58,2.44,11.21,2.48c1.8,0.01,3.55-0.23,5.1-0.86c1.56-0.63,2.98-1.62,4.19-2.98
				l0.16-0.2c0.17-0.15,0.47-0.47,0.71-0.75c0.25-0.28,0.49-0.59,0.73-0.89c0.47-0.62,0.9-1.28,1.31-1.96
				c0.82-1.36,1.45-2.85,1.91-4.4c0.44-1.56,0.78-3.19,0.8-4.88c0.06-0.85-0.02-1.69-0.05-2.55c-0.05-0.86-0.24-1.71-0.33-2.59
				c0.79,1.55,1.54,3.21,1.89,5c0.42,1.77,0.56,3.63,0.43,5.5c-0.11,1.87-0.52,3.73-1.15,5.52c-0.32,0.89-0.7,1.77-1.14,2.63
				c-0.22,0.43-0.45,0.85-0.71,1.27c-0.26,0.44-0.5,0.8-0.9,1.31l0.16-0.2c-1.32,2.09-3.23,3.97-5.51,5.24
				c-2.27,1.32-4.82,1.93-7.27,2.18c-4.96,0.45-9.6-0.55-13.94-1.9c-4.35-1.38-8.42-3.23-12.34-5.29c-3.91-2.07-7.66-4.35-11.28-6.8
				c-7.24-4.89-14-10.35-20.37-16.19C263.16,344.44,257.14,338.22,251.8,331.38z"/>
		</g>
		<g>
			<path class="st1" d="M274.15,293.28c6.32,3.53,12.44,7.34,18.49,11.24c6.04,3.9,12,7.93,17.89,12.03
				c5.9,4.09,11.7,8.32,17.48,12.57c5.75,4.29,11.49,8.6,17.13,13.04l0.17,0.13l0.06,0.06c0.26,0.23,0.73,0.61,1.13,0.91
				c0.42,0.32,0.85,0.63,1.29,0.93c0.88,0.6,1.79,1.16,2.72,1.65c1.87,0.98,3.81,1.76,5.77,2.17c1.96,0.4,3.92,0.47,5.82,0.09
				c1.89-0.4,3.74-1.21,5.44-2.41c0.43-0.29,0.83-0.64,1.26-0.96c0.41-0.34,0.79-0.72,1.2-1.08c0.4-0.38,0.78-0.83,1.18-1.24
				l0.53-0.56c0.16-0.19,0.32-0.37,0.47-0.58c1.22-1.66,2.17-3.65,2.6-5.77c0.46-2.13,0.45-4.4,0.03-6.67
				c-0.44-2.27-1.36-4.47-2.41-6.67c1.6,1.81,3.1,3.8,4.09,6.14c1,2.32,1.56,4.91,1.47,7.56c-0.08,2.65-0.8,5.3-2.09,7.73
				c-0.16,0.31-0.34,0.61-0.53,0.91l-0.31,0.47l-0.28,0.39c-0.37,0.51-0.71,1.02-1.12,1.53c-0.43,0.5-0.84,1.03-1.29,1.52
				c-0.48,0.47-0.92,0.98-1.44,1.43c-2.03,1.81-4.49,3.34-7.25,4.18c-1.38,0.41-2.8,0.67-4.23,0.78c-1.42,0.09-2.86,0.05-4.24-0.15
				c-2.78-0.38-5.42-1.22-7.85-2.36c-1.22-0.57-2.4-1.21-3.54-1.91c-0.57-0.35-1.13-0.71-1.68-1.11c-0.57-0.41-1.05-0.76-1.71-1.31
				l0.23,0.19c-5.81-4.21-11.54-8.54-17.24-12.9c-5.68-4.39-11.33-8.81-16.88-13.36c-5.56-4.54-11.06-9.16-16.47-13.91
				C284.63,303.23,279.28,298.4,274.15,293.28z"/>
		</g>
		<g>
			<path class="st1" d="M291.14,255.64l21.68,15.01l21.62,15.09l43.16,30.31l-0.4-0.22c1.09,0.38,2.41,0.75,3.66,0.99
				c0.63,0.13,1.27,0.21,1.91,0.31c0.64,0.05,1.28,0.14,1.92,0.16c2.56,0.13,5.1-0.14,7.44-0.89c2.35-0.75,4.43-2.09,6.17-3.78
				c0.41-0.45,0.89-0.83,1.25-1.33l1.1-1.49c0.4-0.46,0.66-1.09,0.99-1.64l0.95-1.69c2.42-4.57,3.31-9.7,2.55-14.57
				c-0.38-2.44-1.27-4.8-2.44-6.99c-0.59-1.1-1.28-2.15-2.02-3.14c-0.38-0.49-0.77-0.97-1.17-1.41c-0.2-0.21-0.4-0.44-0.54-0.56
				l-0.78-0.69l-49.79-43.91l-49.64-44.07c-16.56-14.67-33-29.47-49.51-44.2l2.19,0.96l-45.41-4.06l-45.39-4.21l3.81-2.24
				l-23.54,52.79l-23.69,52.72l-0.35-3.31c11.33,15.53,23.16,30.86,35.4,45.76c6.12,7.46,12.37,14.82,18.73,22.07
				c6.35,7.27,12.83,14.41,19.49,21.38c6.66,6.97,13.5,13.77,20.57,20.3c7.07,6.53,14.37,12.83,22.1,18.55
				c3.86,2.86,7.81,5.6,11.92,8.07c4.09,2.49,8.33,4.75,12.74,6.59c4.4,1.84,9.02,3.2,13.75,3.66c4.72,0.51,9.56-0.16,13.87-2.22
				l0.05-0.03l0.06-0.01c1.22-0.25,2.46-0.95,3.51-1.76c1.07-0.82,2-1.84,2.81-2.93c0.84-1.08,1.5-2.29,2.13-3.51l0.84-1.89
				l0.71-1.94l-0.62,1.97l-0.75,1.93c-0.58,1.25-1.19,2.51-2,3.65c-0.78,1.15-1.69,2.24-2.77,3.15c-1.09,0.9-2.27,1.68-3.75,2.06
				l0.11-0.04c-4.35,2.32-9.4,3.29-14.32,2.92c-4.93-0.29-9.76-1.52-14.35-3.24c-9.2-3.45-17.65-8.52-25.65-14.08
				c-16.01-11.17-30.44-24.34-44.21-38.05c-6.88-6.87-13.59-13.9-20.16-21.06c-6.56-7.17-12.95-14.48-19.25-21.87
				c-6.29-7.4-12.48-14.88-18.55-22.46c-6.08-7.58-12.04-15.22-17.84-23.08l-1.13-1.53l0.78-1.79l23.13-52.97l23.28-52.9l1.09-2.48
				l2.72,0.24l45.41,4.05l45.4,4.2l1.26,0.12l0.93,0.84c16.43,14.83,32.93,29.58,49.31,44.47l49.19,44.61l49.04,44.77l0.77,0.7
				c0.37,0.35,0.62,0.64,0.89,0.94c0.52,0.59,0.99,1.2,1.44,1.81c0.89,1.24,1.7,2.52,2.39,3.88c1.37,2.71,2.39,5.63,2.79,8.67
				c0.83,6.08-0.53,12.36-3.42,17.49l-1.13,1.9c-0.4,0.63-0.7,1.28-1.2,1.87l-1.41,1.81c-0.47,0.6-1.08,1.1-1.62,1.65
				c-2.25,2.1-5.01,3.75-7.97,4.61c-2.95,0.87-6.01,1.1-8.97,0.88c-0.74-0.04-1.47-0.16-2.21-0.24c-0.73-0.13-1.46-0.25-2.17-0.41
				c-1.46-0.33-2.81-0.71-4.31-1.29l-0.22-0.09l-0.18-0.14l-42.18-31.66l-21.04-15.89L291.14,255.64z"/>
		</g>
	</g>
	<path class="st2" d="M59.95,239.74l10.01,4.61c9.67,4.45,21.12,0.22,25.58-9.45l54.78-118.96c4.45-9.67,0.22-21.12-9.45-25.58
		l-10.01-4.61c-9.67-4.45-21.12-0.22-25.58,9.45L50.5,214.16C46.05,223.83,50.28,235.29,59.95,239.74z"/>
	<g>
		<path class="st0" d="M59.95,239.74l10.01,4.61c9.67,4.45,21.12,0.22,25.58-9.45l54.78-118.96c4.45-9.67,0.22-21.12-9.45-25.58
			l-10.01-4.61c-9.67-4.45-21.12-0.22-25.58,9.45L50.5,214.16C46.05,223.83,50.28,235.29,59.95,239.74z"/>
		<path class="st1" d="M59.95,239.74l5.76,2.63l2.88,1.32l1.44,0.65l1.47,0.58c3.97,1.41,8.4,1.48,12.37,0.12
			c1.99-0.66,3.87-1.63,5.53-2.9c1.65-1.28,3.07-2.83,4.22-4.55c1.18-1.7,1.92-3.67,2.79-5.6l2.55-5.79
			c6.74-15.48,13.34-31.02,19.92-46.57l9.89-23.32c3.34-7.75,6.64-15.53,10.02-23.26l5.1-11.59l2.55-5.79c0.2-0.47,0.45-1,0.61-1.42
			l0.45-1.2c0.23-0.82,0.5-1.63,0.6-2.48c0.27-1.67,0.3-3.39,0.01-5.06c-0.29-1.67-0.86-3.29-1.64-4.79
			c-1.54-3.03-4.17-5.39-7.22-6.84l-5.74-2.66l-2.87-1.33l-1.43-0.66l-1.18-0.47c-1.59-0.56-3.26-0.9-4.95-0.96
			c-1.69-0.08-3.39,0.21-5.02,0.7c-1.62,0.51-3.17,1.26-4.57,2.24c-1.38,1-2.61,2.23-3.61,3.62c-0.23,0.36-0.51,0.7-0.72,1.07
			l-0.63,1.14l-1.37,2.82l-2.75,5.7c-7.37,15.19-14.9,30.3-22.44,45.41l-11.29,22.67c-3.72,7.58-7.49,15.13-11.16,22.73l-5.49,11.41
			l-2.75,5.7c-0.48,0.95-0.89,1.91-1.28,2.87c-0.32,0.99-0.65,1.99-0.81,3.03c-0.38,2.06-0.45,4.18-0.13,6.26
			c0.32,2.08,0.97,4.11,1.94,5.97C52.88,234.93,56.15,237.92,59.95,239.74z M59.95,239.74c-3.81-1.79-7.11-4.78-9.03-8.56
			c-0.97-1.87-1.67-3.89-2.03-5.98c-0.35-2.09-0.32-4.24,0.02-6.33c0.14-1.06,0.46-2.07,0.77-3.09c0.37-1,0.76-1.99,1.2-2.95
			l2.55-5.79l5.1-11.59c3.39-7.73,6.68-15.51,10.02-23.26l9.88-23.32c6.57-15.56,13.17-31.1,19.91-46.58l2.55-5.79l1.29-2.92
			l0.84-1.67c0.29-0.55,0.65-1.06,0.98-1.59c1.39-2.08,3.12-3.93,5.11-5.47c2-1.53,4.27-2.69,6.65-3.48
			c4.77-1.62,10.11-1.54,14.87,0.17l1.76,0.7l1.45,0.66l2.88,1.32l5.76,2.63c4.56,2.16,8.5,5.79,10.78,10.31
			c1.17,2.24,1.94,4.68,2.33,7.17c0.38,2.5,0.31,5.06-0.14,7.53c-0.2,1.25-0.58,2.45-0.97,3.64l-0.72,1.74
			c-0.24,0.56-0.46,0.97-0.69,1.47l-2.74,5.7l-5.49,11.41c-3.67,7.6-7.44,15.16-11.16,22.73l-11.29,22.67
			c-7.55,15.11-15.06,30.23-22.44,45.41l-2.74,5.7l-1.38,2.85l-0.77,1.42c-0.26,0.47-0.59,0.89-0.89,1.34
			c-1.25,1.74-2.77,3.28-4.5,4.53c-1.74,1.23-3.68,2.18-5.7,2.82c-2.03,0.62-4.15,0.97-6.27,0.88c-2.12-0.07-4.21-0.49-6.2-1.19
			L70,244.4l-1.44-0.66l-2.87-1.33L59.95,239.74z"/>
	</g>
</g>
<g id="Layer_1">
	<path class="st3" d="M168.71,271.74L168.71,271.74c-9.22-7.09-22.44-5.37-29.53,3.85l-22.44,29.18
		c-7.09,9.22-5.37,22.44,3.85,29.53l0,0c9.22,7.09,22.44,5.37,29.53-3.85l22.44-29.18C179.65,292.05,177.93,278.83,168.71,271.74z"
		/>
	<path class="st3" d="M196.43,306.15L196.43,306.15c-9.22-7.09-22.44-5.37-29.53,3.85l-13.61,17.69
		c-7.09,9.22-5.37,22.44,3.85,29.53h0c9.22,7.09,22.44,5.37,29.53-3.85l13.61-17.69C207.37,326.46,205.65,313.24,196.43,306.15z"/>
	<path class="st3" d="M227.03,334.03L227.03,334.03c-9.22-7.09-22.44-5.37-29.53,3.85l-12.15,15.8c-7.09,9.22-5.37,22.44,3.85,29.53
		l0,0c9.22,7.09,22.44,5.37,29.53-3.85l12.15-15.8C237.97,354.34,236.25,341.12,227.03,334.03z"/>
	<path class="st3" d="M258.33,363.25L258.33,363.25c-9.22-7.09-22.44-5.37-29.53,3.85l-4.07,5.3c-7.09,9.22-5.37,22.44,3.85,29.53
		l0,0c9.22,7.09,22.44,5.37,29.53-3.85l4.07-5.3C269.28,383.56,267.55,370.34,258.33,363.25z"/>
	<g>
		<path class="st1" d="M168.71,271.74c-1.73-1.27-3.62-2.31-5.63-3.06c-2.02-0.71-4.15-1.06-6.28-1.14
			c-2.13-0.1-4.26,0.28-6.28,0.86c-2.04,0.57-3.95,1.53-5.66,2.73c-1.73,1.18-3.24,2.65-4.45,4.32c-1.25,1.65-2.45,3.5-3.67,5.25
			l-7.23,10.67l-7.23,10.67l-1.83,2.65l-0.92,1.33c-0.15,0.22-0.32,0.45-0.45,0.65l-0.36,0.59c-1,1.55-1.68,3.26-2.15,4.99
			c-0.48,1.74-0.68,3.54-0.6,5.32c0.08,1.78,0.36,3.55,0.95,5.21c0.57,1.67,1.39,3.24,2.39,4.68c1.04,1.42,2.27,2.67,3.64,3.77
			c1.41,1.05,2.94,1.92,4.57,2.56c1.64,0.6,3.37,0.99,5.13,1.12c1.76,0.14,3.55-0.03,5.29-0.42c0.88-0.18,1.71-0.49,2.57-0.77
			c0.81-0.37,1.66-0.69,2.42-1.18c0.81-0.41,1.51-0.98,2.26-1.5c0.69-0.59,1.41-1.16,2.02-1.86l0.48-0.5
			c0.17-0.18,0.35-0.4,0.52-0.6l1.05-1.23l2.09-2.45l8.46-9.73l8.46-9.73c1.37-1.63,2.85-3.27,4.13-4.9c1.3-1.6,2.33-3.45,3.03-5.42
			c0.72-1.96,1.16-4.05,1.19-6.17c0.04-2.11-0.14-4.26-0.79-6.29c-0.62-2.03-1.51-4-2.71-5.78
			C171.87,274.65,170.38,273.09,168.71,271.74z M168.71,271.74c1.69,1.33,3.2,2.87,4.46,4.61c1.23,1.76,2.22,3.69,2.91,5.74
			c0.7,2.04,1.05,4.21,1.13,6.38c0.06,1.09-0.05,2.17-0.13,3.27c-0.18,1.08-0.32,2.17-0.65,3.22c-0.59,2.11-1.45,4.19-2.67,6.05
			c-1.19,1.88-2.43,3.56-3.65,5.35l-7.24,10.67l-7.23,10.67l-1.83,2.65l-0.92,1.32c-0.16,0.22-0.29,0.43-0.47,0.67l-0.56,0.73
			c-1.47,1.96-3.28,3.71-5.34,5.09c-2.05,1.41-4.32,2.54-6.74,3.21c-2.4,0.67-4.92,1.1-7.45,0.99c-2.52-0.1-5.04-0.53-7.44-1.37
			c-2.38-0.89-4.62-2.12-6.66-3.62c-1.98-1.58-3.75-3.43-5.21-5.51c-1.44-2.1-2.5-4.43-3.24-6.84c-0.76-2.41-1-4.96-0.96-7.46
			c0.03-2.51,0.52-5,1.37-7.34c0.81-2.35,2.02-4.56,3.55-6.48l0.56-0.73c0.18-0.23,0.35-0.42,0.53-0.63l1.05-1.22l2.09-2.45
			l8.46-9.73l8.46-9.73c1.42-1.63,2.73-3.27,4.24-4.9c0.73-0.84,1.59-1.56,2.43-2.28c0.9-0.64,1.77-1.34,2.74-1.86
			c0.93-0.59,1.95-1.01,2.95-1.45c1.04-0.36,2.06-0.74,3.13-0.96c2.12-0.49,4.3-0.7,6.45-0.55c2.15,0.15,4.27,0.61,6.29,1.34
			C165.11,269.39,166.99,270.45,168.71,271.74z"/>
	</g>
	<g>
		<path class="st1" d="M196.43,306.15c-2.96-2.18-6.46-3.7-10.12-4.03l-1.37-0.12l-1.37,0.02l-0.68,0.01l-0.68,0.08l-1.35,0.16
			c-1.78,0.34-3.54,0.85-5.15,1.64c-1.63,0.77-3.14,1.76-4.45,2.94c-1.37,1.13-2.46,2.53-3.49,3.94l-6.13,9.24l-6.13,9.24
			c-1.79,2.72-2.83,5.77-3.06,8.87c-0.16,1.55,0,3.09,0.19,4.61c0.31,1.5,0.69,2.98,1.33,4.36c0.13,0.36,0.31,0.69,0.49,1.02
			c0.18,0.33,0.35,0.67,0.54,1c0.44,0.61,0.8,1.28,1.3,1.85c0.88,1.23,2.04,2.21,3.19,3.18c1.23,0.87,2.48,1.73,3.89,2.27
			c0.68,0.34,1.41,0.52,2.12,0.79c0.36,0.11,0.73,0.17,1.1,0.27c0.37,0.09,0.74,0.18,1.11,0.21c1.5,0.27,3.03,0.26,4.56,0.18
			c1.51-0.2,3.06-0.44,4.51-0.99c2.95-1.01,5.63-2.81,7.8-5.24l7.35-8.29l7.35-8.3c1.11-1.36,2.17-2.77,2.92-4.38
			c0.81-1.58,1.38-3.29,1.7-5.06c0.35-1.77,0.39-3.59,0.26-5.4l-0.19-1.35l-0.1-0.68l-0.16-0.66l-0.33-1.33l-0.47-1.29
			C201.66,311.44,199.3,308.45,196.43,306.15z M196.43,306.15c5.85,4.49,9.3,12.03,8.53,19.6c-0.31,3.77-1.65,7.5-3.83,10.72
			L195,345.7l-6.13,9.24c-2.36,3.37-5.63,6.33-9.52,8.1l-1.47,0.63c-0.5,0.2-1.01,0.34-1.52,0.51c-1.01,0.37-2.08,0.53-3.13,0.76
			l-1.61,0.19l-0.81,0.09l-0.81,0.02l-1.62,0.01l-1.62-0.15c-4.33-0.42-8.5-2.21-11.98-4.8c-3.4-2.7-6.21-6.26-7.72-10.34
			l-0.56-1.53c-0.15-0.52-0.27-1.05-0.41-1.57l-0.19-0.79l-0.12-0.8l-0.23-1.6c-0.17-2.15-0.14-4.31,0.26-6.42
			c0.06-0.53,0.21-1.05,0.33-1.57c0.14-0.52,0.25-1.04,0.43-1.54c0.38-1,0.7-2.01,1.21-2.94c0.87-1.92,2.13-3.65,3.42-5.24
			l7.36-8.29l7.36-8.29c2.55-2.93,5.82-5.19,9.38-6.45C182.41,300.24,190.59,301.64,196.43,306.15z"/>
	</g>
	<g>
		<path class="st1" d="M227.03,334.03c-2.87-2.14-6.28-3.59-9.82-4c-3.54-0.39-7.17,0.09-10.36,1.55c-3.22,1.39-5.94,3.7-7.93,6.45
			c-0.51,0.64-1,1.45-1.5,2.19l-1.48,2.25l-2.97,4.5l-2.97,4.5l-1.48,2.25c-0.47,0.74-1.05,1.54-1.4,2.19l-0.6,1.01l-0.49,1.06
			c-0.36,0.68-0.55,1.45-0.82,2.16c-0.4,1.48-0.7,2.98-0.75,4.49c-0.18,3.02,0.47,6.01,1.67,8.7c1.24,2.68,3.13,5,5.43,6.81
			c1.19,0.85,2.41,1.68,3.78,2.22c1.33,0.62,2.75,1.02,4.2,1.29c2.9,0.48,5.97,0.34,8.85-0.61c1.45-0.43,2.83-1.1,4.16-1.87
			c0.62-0.45,1.31-0.82,1.88-1.35l0.9-0.75l0.82-0.84c0.53-0.51,1.17-1.27,1.76-1.92l1.79-2.01l3.59-4.03l3.59-4.03l1.79-2.01
			c0.59-0.67,1.24-1.35,1.73-2.01c2.14-2.63,3.69-5.85,4.19-9.33c0.59-3.46,0.12-7.1-1.16-10.41
			C232.11,339.17,229.83,336.26,227.03,334.03z M227.03,334.03c2.83,2.2,5.15,5.08,6.64,8.36c1.46,3.29,2.22,6.96,1.96,10.63
			c-0.08,1.84-0.46,3.67-0.98,5.46c-0.33,0.87-0.59,1.78-1.03,2.61l-0.61,1.27l-0.74,1.21c-1.99,3.1-3.96,6.03-5.94,9.06l-2.97,4.5
			l-1.49,2.25c-0.52,0.76-0.92,1.47-1.59,2.3c-2.41,3.24-5.69,5.97-9.53,7.59c-3.81,1.69-8.11,2.25-12.3,1.77
			c-4.2-0.5-8.25-2.23-11.63-4.76c-3.32-2.62-6.03-6.08-7.6-10.02c-1.55-3.93-2.11-8.23-1.45-12.35c0.57-4.13,2.37-8,4.89-11.16
			c0.63-0.85,1.21-1.43,1.81-2.13l1.8-2.01l3.59-4.02c2.42-2.69,4.74-5.35,7.23-8.06l0.98-1.02l1.08-0.92
			c0.69-0.64,1.51-1.12,2.26-1.66c1.6-0.96,3.27-1.79,5.03-2.34c3.49-1.19,7.22-1.4,10.78-0.83c1.77,0.32,3.52,0.81,5.16,1.56
			C224.07,331.98,225.58,332.98,227.03,334.03z"/>
	</g>
	<g>
		<path class="st1" d="M258.33,363.25c-2.42-1.83-5.25-3.13-8.21-3.69c-2.96-0.58-6.03-0.46-8.89,0.32
			c-2.87,0.75-5.49,2.23-7.63,4.14c-2.2,1.91-3.61,4.28-5.29,6.92l-1.23,1.92l-0.61,0.96l-0.5,0.89c-0.36,0.58-0.62,1.2-0.88,1.82
			c-0.29,0.6-0.46,1.25-0.67,1.88c-0.77,2.53-0.99,5.17-0.67,7.72c0.62,5.09,3.25,9.71,7.19,12.73c3.93,3.04,9.07,4.41,14.16,3.7
			c2.54-0.34,5.04-1.24,7.29-2.63c0.55-0.37,1.14-0.69,1.65-1.13c0.53-0.41,1.07-0.82,1.53-1.32l0.74-0.71l0.77-0.83l1.54-1.68
			c2.12-2.31,4.05-4.28,5.33-6.9c1.3-2.56,2.04-5.48,2.04-8.45c0.02-2.96-0.66-5.96-1.98-8.67
			C262.7,367.51,260.73,365.11,258.33,363.25z M258.33,363.25c4.83,3.69,8.04,9.41,8.71,15.61c0.35,3.1,0.03,6.3-0.95,9.36
			c-0.27,0.75-0.49,1.54-0.85,2.26c-0.32,0.74-0.66,1.49-1.09,2.18l-0.62,1.06l-0.62,0.97l-1.23,1.92l-1.23,1.92l-0.62,0.97
			l-0.74,1.02c-0.47,0.7-1.04,1.33-1.61,1.96c-0.55,0.66-1.2,1.21-1.84,1.79c-2.59,2.25-5.74,3.95-9.15,4.82
			c-3.4,0.89-7.04,1.01-10.54,0.31c-3.51-0.69-6.87-2.23-9.72-4.4c-2.83-2.2-5.18-5.04-6.75-8.26c-1.58-3.21-2.41-6.76-2.42-10.27
			c-0.04-3.52,0.8-7,2.31-10.09c0.39-0.77,0.76-1.54,1.26-2.24c0.46-0.72,0.93-1.43,1.48-2.06l0.8-0.98l0.77-0.85l1.54-1.68
			l1.54-1.68l0.78-0.84l0.87-0.87c0.56-0.6,1.19-1.11,1.82-1.62c0.61-0.54,1.31-0.95,1.97-1.4c2.71-1.73,5.73-2.86,8.81-3.31
			C247.18,357.88,253.53,359.52,258.33,363.25z"/>
	</g>
	<path class="st3" d="M199.81,145.9c10.48-8.01,47.47-28.25,54.93-30.84c32.77-11.37,67.41,11,102.08,11.73
		c13.3,27.26,56.73,117.26,56.88,124.87c0.15,7.6-5.74,23.43-12.82,26.2c-37.7-32.25-71.35-65.28-109.06-97.53
		c-5.34-4.57-26.97-10.38-30.69-8.28c-5.69,3.22-15.64,2.48-16.82,8.91c-3.1,16.9-20.66,66.76-63.48,42.61
		c-8.12-4.58,0.48-12.39,3.57-25.71C188.49,180.3,178.74,162,199.81,145.9z"/>
	<g>
		<path class="st1" d="M199.81,145.9c5.6-4.14,11.61-7.69,17.59-11.25c6-3.53,12.07-6.95,18.19-10.27c3.06-1.67,6.14-3.28,9.23-4.89
			c3.1-1.59,6.18-3.2,9.44-4.53c6.58-2.41,13.6-3.55,20.6-3.57c7.02-0.08,13.99,0.87,20.86,2.12c6.87,1.31,13.65,3,20.4,4.7
			c6.75,1.69,13.49,3.4,20.28,4.66c6.79,1.29,13.63,2.13,20.46,2.18l1.03,0.01l0.49,0.97c6.35,12.45,12.63,24.93,18.88,37.43
			c6.26,12.5,12.39,25.06,18.47,37.65c3.05,6.29,6.04,12.62,8.96,18.98c2.93,6.37,5.83,12.73,8.57,19.25
			c0.69,1.63,1.35,3.28,2.01,4.95c0.31,0.86,0.65,1.67,0.95,2.58l0.45,1.34l0.42,1.51c0.13,0.51,0.28,1.55,0.29,2.09l-0.03,1.59
			c-0.09,1-0.18,2.01-0.36,2.96c-0.3,1.93-0.77,3.75-1.3,5.56c-1.1,3.6-2.5,7.07-4.41,10.43c-0.53,0.83-0.97,1.67-1.58,2.48
			l-0.88,1.22l-1,1.19c-1.42,1.55-3.06,3.13-5.57,4.17l-2.08,0.87l-1.77-1.52c-5.97-5.11-11.94-10.22-17.81-15.44
			c-5.87-5.22-11.68-10.5-17.47-15.78l-17.32-15.9l-17.2-16c-5.73-5.33-11.5-10.62-17.27-15.89c-5.76-5.28-11.55-10.55-17.39-15.73
			l-2.19-1.95l-1.1-0.97l-0.55-0.49c-0.2-0.18-0.28-0.23-0.43-0.36c-1.18-0.91-2.87-1.77-4.54-2.52c-3.4-1.5-7.04-2.74-10.7-3.77
			c-1.83-0.51-3.68-0.97-5.52-1.33c-1.83-0.36-3.71-0.65-5.36-0.66c-0.41-0.01-0.77,0.03-1.07,0.06c-0.33,0.1,0-0.08-0.75,0.29
			l-0.77,0.37l-0.77,0.3c-0.52,0.21-1.02,0.37-1.53,0.53c-2.02,0.62-3.97,1.02-5.8,1.49c-1.82,0.46-3.56,1-4.82,1.82
			c-0.18,0.09-0.3,0.21-0.43,0.32c-0.13,0.11-0.28,0.21-0.39,0.33c-0.18,0.26-0.45,0.47-0.56,0.76c-0.07,0.14-0.17,0.26-0.22,0.41
			c-0.04,0.16-0.09,0.31-0.14,0.47c-0.03,0.09-0.05,0.14-0.08,0.25l-0.08,0.37l-0.16,0.74c-0.88,3.94-2.06,7.75-3.44,11.49
			c-2.79,7.46-6.4,14.66-11.28,21.03c-2.44,3.17-5.2,6.13-8.37,8.63c-3.16,2.5-6.73,4.52-10.58,5.75
			c-3.85,1.25-7.93,1.67-11.92,1.35c-3.99-0.33-7.89-1.3-11.58-2.75c-0.93-0.33-1.82-0.78-2.73-1.17l-1.36-0.6
			c-0.45-0.21-0.88-0.46-1.31-0.68l-2.61-1.39c-0.87-0.49-1.74-1.1-2.44-1.9c-0.7-0.79-1.18-1.82-1.29-2.88
			c-0.14-1.05,0-2.09,0.23-3.07c0.48-1.96,1.28-3.77,2.07-5.57c1.59-3.58,3.21-7.14,4.29-10.89c1.06-3.75,1.65-7.63,1.72-11.54
			c0.26-7.79-0.55-15.73,1.3-23.43c0.95-3.82,2.64-7.43,4.91-10.61c0.6-0.78,1.17-1.58,1.79-2.33l2.03-2.12
			c0.65-0.74,1.41-1.36,2.17-1.98L199.81,145.9z M199.81,145.9l-2.24,1.9c-0.75,0.63-1.51,1.25-2.15,1.99l-2.02,2.13
			c-0.62,0.76-1.18,1.56-1.77,2.34c-2.25,3.19-3.91,6.8-4.82,10.6c-1.79,7.67-0.93,15.58-1.14,23.4c-0.07,3.92-0.54,7.86-1.55,11.67
			c-1.02,3.81-2.58,7.44-4.1,11.04c-0.74,1.8-1.5,3.61-1.91,5.47c-0.43,1.83-0.31,3.81,0.96,5.13c1.19,1.35,3.11,2.04,4.81,2.96
			c0.44,0.21,0.86,0.45,1.3,0.65l1.34,0.56c0.9,0.36,1.77,0.79,2.69,1.09c3.64,1.33,7.44,2.13,11.26,2.34
			c3.82,0.2,7.65-0.32,11.23-1.6c7.2-2.54,13.05-7.94,17.47-14.15c4.44-6.25,7.69-13.33,10.13-20.62c1.2-3.65,2.21-7.38,2.91-11.12
			l0.13-0.7l0.06-0.35l0.11-0.46l0.26-0.94c0.1-0.31,0.27-0.6,0.42-0.9c0.27-0.62,0.72-1.11,1.13-1.63
			c0.45-0.44,0.92-0.91,1.42-1.23c2.01-1.38,4.07-2.02,6.01-2.6c1.94-0.56,3.82-1.02,5.53-1.62c0.42-0.15,0.85-0.3,1.23-0.48
			l0.59-0.25l0.54-0.29c0.22-0.11,0.23-0.13,0.79-0.39c0.23-0.11,0.45-0.19,0.62-0.23l0.56-0.15c0.67-0.13,1.29-0.18,1.86-0.2
			c2.27-0.06,4.28,0.22,6.31,0.53c2.01,0.32,3.99,0.74,5.95,1.21c3.92,0.95,7.76,2.11,11.57,3.67c1.92,0.81,3.79,1.63,5.78,3.04
			c0.23,0.18,0.55,0.42,0.71,0.56l0.56,0.47l1.13,0.94l2.26,1.89c6.03,5.03,11.99,10.14,17.93,15.28
			c5.91,5.17,11.78,10.37,17.63,15.59l17.51,15.69l17.41,15.77c5.82,5.23,11.64,10.45,17.51,15.61c5.84,5.2,11.71,10.34,17.62,15.45
			l-3.85-0.65c0.75-0.29,1.77-1.11,2.69-2.13l0.69-0.81l0.65-0.9c0.45-0.58,0.83-1.29,1.25-1.92c1.56-2.71,2.82-5.74,3.78-8.81
			c0.46-1.54,0.87-3.1,1.11-4.62c0.16-0.77,0.21-1.5,0.29-2.24l0.04-1.03l0.01-0.13c0-0.02-0.01-0.03-0.02-0.04
			c-0.01-0.03-0.02-0.05-0.02-0.08s-0.01-0.05-0.01-0.08c0-0.02,0-0.02,0-0.05l-0.03-0.13l-0.26-1.02l-0.37-1.15
			c-0.23-0.76-0.55-1.57-0.82-2.36c-0.58-1.59-1.2-3.19-1.84-4.79c-5.14-12.83-10.94-25.55-16.57-38.3
			c-5.67-12.74-11.5-25.43-17.28-38.14c-5.8-12.7-11.64-25.39-17.54-38.04l1.53,0.98c-14.26-0.58-27.83-4.57-41.2-8.32
			c-6.7-1.9-13.38-3.78-20.16-5.28c-6.77-1.47-13.65-2.54-20.57-2.59c-6.91-0.11-13.86,0.88-20.41,3.14
			c-3.22,1.24-6.35,2.79-9.47,4.32c-3.11,1.55-6.19,3.17-9.26,4.81c-6.14,3.28-12.23,6.66-18.25,10.15
			C211.47,138.29,205.45,141.8,199.81,145.9z"/>
	</g>
	<path class="st3" d="M462.33,242.52l-10.01,4.61c-9.67,4.45-21.12,0.22-25.58-9.45l-54.78-118.96c-4.45-9.67-0.22-21.12,9.45-25.58
		l10.01-4.61c9.67-4.45,21.12-0.22,25.58,9.45l54.78,118.96C476.24,226.61,472.01,238.06,462.33,242.52z"/>
	<g>
		<path class="st1" d="M462.33,242.52l-5.74,2.66l-2.87,1.33l-1.44,0.66l-1.47,0.59c-1.99,0.71-4.09,1.13-6.2,1.19
			c-2.12,0.08-4.25-0.26-6.27-0.88c-2.02-0.64-3.96-1.58-5.7-2.82c-1.73-1.26-3.25-2.79-4.5-4.53c-0.29-0.45-0.63-0.87-0.89-1.34
			l-0.77-1.42l-1.38-2.85l-2.74-5.7c-7.38-15.18-14.89-30.31-22.44-45.41l-11.29-22.67c-3.72-7.58-7.48-15.14-11.16-22.73
			l-5.49-11.41l-2.74-5.7c-0.23-0.49-0.45-0.91-0.69-1.47l-0.72-1.74c-0.4-1.19-0.78-2.4-0.97-3.64c-0.45-2.48-0.53-5.03-0.14-7.53
			c0.39-2.49,1.16-4.93,2.33-7.17c2.28-4.53,6.22-8.15,10.78-10.31l5.76-2.63l2.88-1.32l1.45-0.66l1.76-0.7
			c4.76-1.71,10.1-1.78,14.87-0.17c2.39,0.79,4.65,1.95,6.65,3.48c1.99,1.54,3.72,3.4,5.11,5.47c0.33,0.53,0.69,1.04,0.98,1.59
			l0.84,1.67l1.29,2.92l2.55,5.79c6.74,15.48,13.34,31.02,19.91,46.58l9.88,23.32c3.34,7.75,6.63,15.53,10.02,23.26l5.1,11.59
			l2.55,5.79c0.44,0.95,0.83,1.95,1.2,2.95c0.31,1.02,0.63,2.04,0.77,3.09c0.34,2.09,0.38,4.24,0.02,6.33
			c-0.36,2.09-1.06,4.11-2.03,5.98C469.44,237.74,466.14,240.72,462.33,242.52z M462.33,242.52c3.8-1.82,7.07-4.81,8.96-8.59
			c0.97-1.87,1.62-3.9,1.94-5.97c0.32-2.08,0.24-4.2-0.13-6.26c-0.16-1.04-0.49-2.03-0.81-3.03c-0.4-0.97-0.81-1.93-1.28-2.87
			l-2.75-5.7l-5.49-11.41c-3.67-7.6-7.44-15.15-11.16-22.73l-11.29-22.67c-7.55-15.11-15.07-30.22-22.44-45.41l-2.75-5.7l-1.37-2.82
			l-0.63-1.14c-0.21-0.38-0.49-0.71-0.72-1.07c-1.01-1.39-2.23-2.61-3.61-3.62c-1.4-0.98-2.95-1.73-4.57-2.24
			c-1.62-0.49-3.33-0.77-5.02-0.7c-1.69,0.06-3.36,0.4-4.95,0.96L393.08,92l-1.43,0.66l-2.87,1.33l-5.74,2.66
			c-3.05,1.45-5.68,3.8-7.22,6.84c-0.78,1.5-1.35,3.11-1.64,4.79c-0.29,1.67-0.26,3.39,0.01,5.06c0.1,0.85,0.37,1.66,0.6,2.48
			l0.45,1.2c0.16,0.42,0.41,0.95,0.61,1.42l2.55,5.79l5.1,11.59c3.39,7.73,6.68,15.51,10.02,23.26l9.89,23.32
			c6.57,15.56,13.17,31.1,19.92,46.57l2.55,5.79c0.87,1.93,1.61,3.9,2.79,5.6c1.15,1.72,2.58,3.27,4.22,4.55
			c1.66,1.27,3.54,2.25,5.53,2.9c3.97,1.36,8.4,1.29,12.37-0.12l1.47-0.58l1.44-0.65l2.88-1.32L462.33,242.52z"/>
	</g>
</g>
</svg>
