<?xml version="1.0" encoding="utf-8"?>
<!-- Generator: Adobe Illustrator 24.1.2, SVG Export Plug-In . SVG Version: 6.00 Build 0)  -->
<svg version="1.1" id="Layer_1" xmlns="http://www.w3.org/2000/svg" xmlns:xlink="http://www.w3.org/1999/xlink" x="0px" y="0px"
	 viewBox="0 0 500 500" style="enable-background:new 0 0 500 500;" xml:space="preserve">
<style type="text/css">
	.st0{fill:#61BF5C;stroke:#FFFFFF;stroke-width:6;stroke-miterlimit:10;}
	.st1{fill:none;stroke:#FFFFFF;stroke-width:10;stroke-miterlimit:10;}
	.st2{fill:none;stroke:#FFFFFF;stroke-width:5;stroke-miterlimit:10;}
	.st3{fill:#61BF5C;stroke:#FFFFFF;stroke-width:7.7513;stroke-miterlimit:10;}
	.st4{fill:#61BF5C;stroke:#FFFFFF;stroke-width:6;stroke-linecap:round;stroke-linejoin:round;stroke-miterlimit:10;}
	.st5{fill:#339900;stroke:#FFFFFF;stroke-width:6;stroke-linecap:round;stroke-linejoin:round;stroke-miterlimit:10;}
	.st6{fill:#FFFFFF;}
</style>
<path class="st0" d="M398.45,390.49H71.71c-10.92,0-19.78-8.85-19.78-19.78V172.07c0-10.92,8.85-19.78,19.78-19.78h326.74
	c10.92,0,19.78,8.85,19.78,19.78v198.65C418.22,381.64,409.37,390.49,398.45,390.49z"/>
<path class="st1" d="M148.05,152.29l-4.95-40.69c0-5.49,4.45-9.93,9.93-9.93h164.1c5.49,0,9.93,4.45,9.93,9.93l-4.95,40.69"/>
<line class="st2" x1="51.93" y1="295.65" x2="418.22" y2="295.65"/>
<path class="st3" d="M266.18,311.44h-62.2c-4.04,0-7.32-3.28-7.32-7.32v-16.94c0-4.04,3.28-7.32,7.32-7.32h62.2
	c4.04,0,7.32,3.28,7.32,7.32v16.94C273.5,308.17,270.22,311.44,266.18,311.44z"/>
<polygon class="st4" points="355.44,327.64 347,341.43 338.56,327.64 338.56,249.88 355.44,249.88 "/>
<rect x="329.52" y="274.32" class="st4" width="34.96" height="34.96"/>
<path class="st5" d="M347,309.28c0-1.4,0-16.21,0-16.21"/>
<circle class="st6" cx="347" cy="324.04" r="3"/>
<polygon class="st4" points="134.06,327.64 125.61,341.43 117.17,327.64 117.17,249.88 134.06,249.88 "/>
<rect x="108.13" y="274.32" class="st4" width="34.96" height="34.96"/>
<circle class="st6" cx="125.61" cy="324.04" r="3"/>
<path class="st5" d="M125.61,308.01c0-1.4,0-16.21,0-16.21"/>
</svg>
