<?xml version="1.0" encoding="utf-8"?>
<!-- Generator: Adobe Illustrator 24.1.2, SVG Export Plug-In . SVG Version: 6.00 Build 0)  -->
<svg version="1.1" id="Layer_1" xmlns="http://www.w3.org/2000/svg" xmlns:xlink="http://www.w3.org/1999/xlink" x="0px" y="0px"
	 viewBox="0 0 500 500" style="enable-background:new 0 0 500 500;" xml:space="preserve">
<style type="text/css">
	.st0{fill:#61BF5C;stroke:#FFFFFF;stroke-width:6;stroke-miterlimit:10;}
	.st1{fill:#FFFFFF;}
</style>
<polygon class="st0" points="261.32,143.76 148.52,231.2 165.57,393.45 357.07,393.45 374.12,231.2 "/>
<polygon class="st0" points="189.4,137.22 188.48,159.08 261.32,102.61 391.09,203.2 387.27,228.74 261.32,131.11 130.95,232.17 
	127.7,206.19 163.53,178.41 162.58,137.22 "/>
<g>
	<rect x="178.85" y="320.17" class="st1" width="13.65" height="20.66"/>
	<rect x="196.72" y="320.17" class="st1" width="13.65" height="20.66"/>
	<rect x="178.88" y="344.54" class="st1" width="13.65" height="20.66"/>
	<rect x="196.75" y="344.54" class="st1" width="13.65" height="20.66"/>
</g>
<g>
	<rect x="309.22" y="321" class="st1" width="13.65" height="20.66"/>
	<rect x="327.09" y="321" class="st1" width="13.65" height="20.66"/>
	<rect x="309.25" y="345.37" class="st1" width="13.65" height="20.66"/>
	<rect x="327.12" y="345.37" class="st1" width="13.65" height="20.66"/>
</g>
<g>
	<rect x="180.35" y="234.78" class="st1" width="13.65" height="20.66"/>
	<rect x="198.22" y="234.78" class="st1" width="13.65" height="20.66"/>
	<rect x="180.37" y="259.15" class="st1" width="13.65" height="20.66"/>
	<rect x="198.24" y="259.15" class="st1" width="13.65" height="20.66"/>
</g>
<g>
	<rect x="310.72" y="235.6" class="st1" width="13.65" height="20.66"/>
	<rect x="328.59" y="235.6" class="st1" width="13.65" height="20.66"/>
	<rect x="310.75" y="259.97" class="st1" width="13.65" height="20.66"/>
	<rect x="328.61" y="259.97" class="st1" width="13.65" height="20.66"/>
</g>
<polygon class="st1" points="279.23,394.45 243.41,394.45 241.25,342.71 281.4,342.71 "/>
</svg>
