<?xml version="1.0" encoding="utf-8"?>
<!-- Generator: Adobe Illustrator 24.1.2, SVG Export Plug-In . SVG Version: 6.00 Build 0)  -->
<svg version="1.1" id="Layer_1" xmlns="http://www.w3.org/2000/svg" xmlns:xlink="http://www.w3.org/1999/xlink" x="0px" y="0px"
	 viewBox="0 0 500 500" style="enable-background:new 0 0 500 500;" xml:space="preserve">
<style type="text/css">
	.st0{fill:#FFFFFF;}
	.st1{fill:url(#SVGID_1_);}
	.st2{fill:url(#SVGID_2_);}
</style>
<g>
	<path class="st0" d="M380.07,184.77c-0.35-29.88-0.79-27.54-0.29-73.69c-20.23,7.53-41.35,8.73-62.84,3.57
		c-21.48-5.16-43.95-16.85-66.76-34.74c-22.81,17.89-45.28,29.58-66.76,34.74c-21.49,5.17-42.61,3.96-62.84-3.57
		c0.5,46.15,0.06,43.81-0.29,73.69c-0.76,64.85-1.15,97.4,9.14,121.81c10.24,24.29,31.57,41.51,74.06,75.83
		c13.55,10.94,28.83,23.28,46.68,38.19c17.84-14.91,33.13-27.25,46.68-38.19c42.49-34.31,63.82-51.54,74.06-75.83
		C381.22,282.17,380.83,249.62,380.07,184.77z"/>
</g>
<g>
	<linearGradient id="SVGID_1_" gradientUnits="userSpaceOnUse" x1="119.7726" y1="250" x2="380.2274" y2="250">
		<stop  offset="0" style="stop-color:#099639"/>
		<stop  offset="0.0433" style="stop-color:#1D9D3B"/>
		<stop  offset="0.0994" style="stop-color:#2EA33D"/>
		<stop  offset="0.1676" style="stop-color:#3BA83E"/>
		<stop  offset="0.2592" style="stop-color:#42AA3F"/>
		<stop  offset="0.4749" style="stop-color:#44AB3F"/>
		<stop  offset="0.7304" style="stop-color:#42AA3F"/>
		<stop  offset="0.8389" style="stop-color:#3BA83F"/>
		<stop  offset="0.9195" style="stop-color:#2EA43E"/>
		<stop  offset="0.9859" style="stop-color:#1D9F3D"/>
		<stop  offset="1" style="stop-color:#189D3D"/>
	</linearGradient>
	<path class="st1" d="M379.88,184.51c-0.35-29.88-0.79-27.54-0.29-73.69c-20.23,7.53-41.35,8.73-62.84,3.57
		c-21.48-5.16-43.95-16.85-66.76-34.74c-22.81,17.89-45.28,29.58-66.76,34.74c-21.49,5.17-42.61,3.96-62.84-3.57
		c0.5,46.15,0.06,43.81-0.29,73.69c-0.76,64.85-1.15,97.4,9.14,121.81c10.24,24.29,31.57,41.51,74.06,75.83
		c13.55,10.94,28.83,23.28,46.68,38.19c17.84-14.91,33.13-27.25,46.68-38.19c42.49-34.31,63.82-51.54,74.06-75.83
		C381.03,281.91,380.65,249.36,379.88,184.51z M345.87,294.72c-8.13,19.29-25.07,32.96-58.81,60.21
		c-10.75,8.69-22.89,18.49-37.06,30.32c-14.17-11.83-26.3-21.64-37.06-30.32c-33.74-27.25-50.68-40.92-58.81-60.21
		c-8.17-19.39-7.87-45.23-7.26-96.72c0.28-23.72,0.63-21.87,0.23-58.51c16.06,5.98,32.83,6.93,49.89,2.83
		c17.05-4.1,34.89-13.38,53.01-27.58c18.11,14.21,35.95,23.48,53.01,27.58c17.06,4.1,33.83,3.15,49.89-2.83
		c-0.4,36.64-0.05,34.79,0.23,58.51C353.73,249.49,354.04,275.34,345.87,294.72z"/>
	<linearGradient id="SVGID_2_" gradientUnits="userSpaceOnUse" x1="170.8521" y1="250" x2="329.1478" y2="250">
		<stop  offset="0" style="stop-color:#099639"/>
		<stop  offset="0.0433" style="stop-color:#1D9D3B"/>
		<stop  offset="0.0994" style="stop-color:#2EA33D"/>
		<stop  offset="0.1676" style="stop-color:#3BA83E"/>
		<stop  offset="0.2592" style="stop-color:#42AA3F"/>
		<stop  offset="0.4749" style="stop-color:#44AB3F"/>
		<stop  offset="0.7304" style="stop-color:#42AA3F"/>
		<stop  offset="0.8389" style="stop-color:#3BA83F"/>
		<stop  offset="0.9195" style="stop-color:#2EA43E"/>
		<stop  offset="0.9859" style="stop-color:#1D9F3D"/>
		<stop  offset="1" style="stop-color:#189D3D"/>
	</linearGradient>
	<path class="st2" d="M328.94,210.2c-0.22-18.15-0.48-16.73-0.18-44.78c-12.29,4.58-25.13,5.31-38.19,2.17
		c-13.05-3.14-26.71-10.24-40.58-21.12c-13.86,10.88-27.52,17.98-40.57,21.12c-13.06,3.14-25.89,2.41-38.19-2.17
		c0.31,28.05,0.04,26.63-0.17,44.78c-0.47,39.42-0.7,59.2,5.55,74.04c6.23,14.76,19.19,25.23,45.02,46.08
		c8.23,6.65,17.52,14.15,28.37,23.21c10.84-9.06,20.13-16.56,28.36-23.21c25.83-20.85,38.79-31.32,45.02-46.08
		C329.63,269.4,329.4,249.62,328.94,210.2z M249.99,273.7c-6.51,7.03-16.49,10.01-27.18,10.01c-18.14,0-34.11-8.77-34.11-32.04
		v-37.95h23.07v37.56c0,8.67,4.53,13.21,11.53,13.21c7.3,0,11.24-4.54,11.24-13.21l-0.48-29.56l15.93,22.55l7.51,10.61
		C256.93,263.03,254.17,269.2,249.99,273.7z M312.25,282h-23.07v-36.08h-0.59l-15.18,20.01h-0.79l-22.63-30.83L233.78,213h23.36
		l15.48,21.88h0.79L288.88,213h23.37V282z"/>
</g>
</svg>
