<?xml version="1.0" encoding="utf-8"?>
<!-- Generator: Adobe Illustrator 24.1.2, SVG Export Plug-In . SVG Version: 6.00 Build 0)  -->
<svg version="1.1" id="Layer_1" xmlns="http://www.w3.org/2000/svg" xmlns:xlink="http://www.w3.org/1999/xlink" x="0px" y="0px"
	 viewBox="0 0 500 500" style="enable-background:new 0 0 500 500;" xml:space="preserve">
<style type="text/css">
	.st0{fill:#B71515;stroke:#FFFFFF;stroke-width:6;stroke-linecap:round;stroke-linejoin:round;stroke-miterlimit:10;}
	.st1{fill:#61BF5C;stroke:#FFFFFF;stroke-width:6;stroke-linecap:round;stroke-linejoin:round;stroke-miterlimit:10;}
</style>
<polygon class="st0" points="400.73,271.57 400.73,311.42 360.49,311.42 360.49,351.67 320.63,351.67 320.63,311.42 280.38,311.42 
	280.38,271.57 320.63,271.57 320.63,231.32 360.49,231.32 360.49,271.57 "/>
<path class="st1" d="M309.32,322.73h-40.25v-62.46h40.25v-40.25h62.46v40.25l40.25-0.22c6.52-13.73,7.41-22.97,7.41-37.28
	c0-43.44-35.21-78.65-78.65-78.65c-43.44,0-78.65,35.21-78.65,78.65c0-43.44-35.21-78.65-78.65-78.65s-78.65,35.21-78.65,78.65
	s8.18,67.77,157.3,172.83c17.63-12.42,33.27-23.7,47.18-34.03V322.73z"/>
</svg>
