<?xml version="1.0" encoding="utf-8"?>
<!-- Generator: Adobe Illustrator 24.1.2, SVG Export Plug-In . SVG Version: 6.00 Build 0)  -->
<svg version="1.1" id="Layer_1" xmlns="http://www.w3.org/2000/svg" xmlns:xlink="http://www.w3.org/1999/xlink" x="0px" y="0px"
	 viewBox="0 0 500 500" style="enable-background:new 0 0 500 500;" xml:space="preserve">
<style type="text/css">
	.st0{fill:#61BF5C;stroke:#FFFFFF;stroke-width:5;stroke-miterlimit:10;}
	.st1{fill:#61BF5C;stroke:#FFFFFF;stroke-width:4.4325;stroke-miterlimit:10;}
</style>
<path class="st0" d="M444.46,162.85H321.12c-4.65,0-8.43,3.77-8.43,8.43v144.94c0,4.65-3.77,8.43-8.43,8.43H47.8
	c-5.12,0-9.27,4.15-9.27,9.27v36.24c0,3.41,2.77,6.18,6.18,6.18h21.17c3.08,0,5.74-2.25,6.12-5.31
	c2.62-21.39,20.84-37.95,42.94-37.95s40.32,16.56,42.94,37.95c0.37,3.05,3.04,5.31,6.12,5.31h194.03c3.08,0,5.74-2.25,6.12-5.31
	c2.62-21.39,20.84-37.95,42.94-37.95s40.32,16.56,42.94,37.95c0.37,3.05,3.04,5.31,6.12,5.31h18.64c4.19,0,7.58-3.4,7.58-7.58
	V258.77c0-6.22-1.11-12.39-3.27-18.23l-26.72-72.19C451.14,165.05,447.99,162.85,444.46,162.85z"/>
<circle class="st1" cx="114.94" cy="376.33" r="32.62"/>
<circle class="st1" cx="407.07" cy="376.33" r="32.62"/>
<path class="st0" d="M27.32,119.61h264.61c5.34,0,9.67,4.33,9.67,9.67v175.03c0,5.34-4.33,9.67-9.67,9.67H27.32
	c-5.34,0-9.67-4.33-9.67-9.67V129.28C17.65,123.94,21.98,119.61,27.32,119.61z"/>
</svg>
